<?xml version="1.0" encoding="UTF-8" standalone="no"?>
<svg
   xmlns:dc="http://purl.org/dc/elements/1.1/"
   xmlns:cc="http://creativecommons.org/ns#"
   xmlns:rdf="http://www.w3.org/1999/02/22-rdf-syntax-ns#"
   xmlns:svg="http://www.w3.org/2000/svg"
   xmlns="http://www.w3.org/2000/svg"
   xmlns:xlink="http://www.w3.org/1999/xlink"
   height="14"
   width="14"
   version="1.1"
   viewBox="0 0 14 14"
   id="Firefox">
  <metadata
     id="metadata232">
    <rdf:RDF>
      <cc:Work
         rdf:about="">
        <dc:format>image/svg+xml</dc:format>
        <dc:type
           rdf:resource="http://purl.org/dc/dcmitype/StillImage" />
        <dc:title>firefox-logo-nightly</dc:title>
      </cc:Work>
    </rdf:RDF>
  </metadata>
  <defs
     id="defs190">
    <linearGradient
       gradientUnits="userSpaceOnUse"
       gradientTransform="matrix(0.762,0.034,-0.05,1.12,11560.893,10069.103)"
       y2="-8233.5605"
       x2="-14431.129"
       y1="-8233.5605"
       x1="-14694.371"
       id="linear-gradient">
      <stop
         id="stop2"
         stop-color="#0083ff"
         offset="0" />
      <stop
         id="stop4"
         stop-color="#0092f8"
         offset="0.098" />
      <stop
         id="stop6"
         stop-color="#00abeb"
         offset="0.306" />
      <stop
         id="stop8"
         stop-color="#00bee1"
         offset="0.521" />
      <stop
         id="stop10"
         stop-color="#00c8dc"
         offset="0.747" />
      <stop
         id="stop12"
         stop-color="#00ccda"
         offset="0.999" />
    </linearGradient>
    <radialGradient
       gradientUnits="userSpaceOnUse"
       gradientTransform="matrix(1.225,0,0,1.225,9921.963,9899.103)"
       r="791.229"
       cy="-7923.085"
       cx="-7529.5332"
       id="radial-gradient">
      <stop
         id="stop15"
         stop-color="#005fe7"
         offset="0.025" />
      <stop
         id="stop17"
         stop-color="#0042b4"
         offset="0.177" />
      <stop
         id="stop19"
         stop-color="#002989"
         offset="0.323" />
      <stop
         id="stop21"
         stop-color="#002079"
         offset="0.397" />
      <stop
         id="stop23"
         stop-color="#131d78"
         offset="0.473" />
      <stop
         id="stop25"
         stop-color="#3b1676"
         offset="0.658" />
      <stop
         id="stop27"
         stop-color="#4a1475"
         offset="0.753" />
    </radialGradient>
    <linearGradient
       gradientUnits="userSpaceOnUse"
       gradientTransform="translate(1)"
       y2="104.96"
       x2="384.54901"
       y1="731.18799"
       x1="575.987"
       id="linear-gradient-2">
      <stop
         id="stop30"
         stop-opacity="0.4"
         stop-color="#000f43"
         offset="0" />
      <stop
         id="stop32"
         stop-opacity="0.173"
         stop-color="#001962"
         offset="0.485" />
      <stop
         id="stop34"
         stop-opacity="0"
         stop-color="#002079"
         offset="1" />
    </linearGradient>
    <linearGradient
       xlink:href="#linear-gradient-2"
       y2="104.96"
       x2="385.54901"
       y1="731.18799"
       x1="576.987"
       id="linear-gradient-3" />
    <linearGradient
       gradientUnits="userSpaceOnUse"
       gradientTransform="matrix(1.219,0.123,-0.123,1.219,10296.265,9597.23)"
       y2="-6392.6128"
       x2="-8405.3047"
       y1="-6383.7168"
       x1="-8290.0605"
       id="linear-gradient-4">
      <stop
         id="stop38"
         stop-color="#812cc9"
         offset="0" />
      <stop
         id="stop40"
         stop-color="#005fe7"
         offset="1" />
    </linearGradient>
    <linearGradient
       gradientUnits="userSpaceOnUse"
       gradientTransform="matrix(1.219,0.123,-0.123,1.219,10296.265,9597.23)"
       y2="-6660.8979"
       x2="-8267.083"
       y1="-6548.7749"
       x1="-8375.0332"
       id="linear-gradient-5">
      <stop
         id="stop43"
         stop-color="#005fe7"
         offset="0.049" />
      <stop
         id="stop45"
         stop-color="#065de6"
         offset="0.177" />
      <stop
         id="stop47"
         stop-color="#1856e1"
         offset="0.353" />
      <stop
         id="stop49"
         stop-color="#354adb"
         offset="0.557" />
      <stop
         id="stop51"
         stop-color="#5d3ad1"
         offset="0.78" />
      <stop
         id="stop53"
         stop-color="#812cc9"
         offset="0.951" />
    </linearGradient>
    <linearGradient
       gradientUnits="userSpaceOnUse"
       gradientTransform="matrix(1.219,0.123,-0.123,1.219,10296.265,9597.23)"
       y2="-6280.4912"
       x2="-8344.4326"
       y1="-6281.0332"
       x1="-8575.3213"
       id="linear-gradient-6">
      <stop
         id="stop56"
         stop-color="#002079"
         offset="0" />
      <stop
         id="stop58"
         stop-color="#a238ff"
         offset="0.995" />
    </linearGradient>
    <radialGradient
       gradientUnits="userSpaceOnUse"
       r="793.95001"
       fy="257.02893"
       fx="821.36304"
       cy="386.17401"
       cx="680.43103"
       id="radial-gradient-2">
      <stop
         id="stop61"
         stop-color="#00fdff"
         offset="0.203" />
      <stop
         id="stop63"
         stop-color="#0af1ff"
         offset="0.264" />
      <stop
         id="stop65"
         stop-color="#23d2ff"
         offset="0.372" />
      <stop
         id="stop67"
         stop-color="#4da0ff"
         offset="0.517" />
      <stop
         id="stop69"
         stop-color="#855bff"
         offset="0.689" />
      <stop
         id="stop71"
         stop-color="#a238ff"
         offset="0.77" />
      <stop
         id="stop73"
         stop-color="#a738fd"
         offset="0.809" />
      <stop
         id="stop75"
         stop-color="#b539f9"
         offset="0.855" />
      <stop
         id="stop77"
         stop-color="#cd39f1"
         offset="0.905" />
      <stop
         id="stop79"
         stop-color="#ee3ae6"
         offset="0.956" />
      <stop
         id="stop81"
         stop-color="#ff3be0"
         offset="0.979" />
    </radialGradient>
    <linearGradient
       gradientUnits="userSpaceOnUse"
       gradientTransform="matrix(1.225,0,0,1.225,9921.963,9899.103)"
       y2="-7341.604"
       x2="-7496.6992"
       y1="-8151.9331"
       x1="-7424.6079"
       id="linear-gradient-7">
      <stop
         id="stop84"
         stop-color="#00ec00"
         offset="0" />
      <stop
         id="stop86"
         stop-color="#00e244"
         offset="0.096" />
      <stop
         id="stop88"
         stop-color="#00d694"
         offset="0.219" />
      <stop
         id="stop90"
         stop-color="#00cfc7"
         offset="0.306" />
      <stop
         id="stop92"
         stop-color="#00ccda"
         offset="0.348" />
      <stop
         id="stop94"
         stop-opacity="0.923"
         stop-color="#0bc2dd"
         offset="0.422" />
      <stop
         id="stop96"
         stop-opacity="0.723"
         stop-color="#29a7e4"
         offset="0.567" />
      <stop
         id="stop98"
         stop-opacity="0.401"
         stop-color="#597df0"
         offset="0.77" />
      <stop
         id="stop100"
         stop-opacity="0"
         stop-color="#9448ff"
         offset="1" />
    </linearGradient>
    <linearGradient
       gradientUnits="userSpaceOnUse"
       gradientTransform="matrix(1.219,0.123,-0.123,1.219,10296.265,9597.23)"
       y2="-6716.1431"
       x2="-8712.0273"
       y1="-6716.1431"
       x1="-8848.4951"
       id="linear-gradient-8">
      <stop
         id="stop103"
         stop-color="#005fe7"
         offset="0" />
      <stop
         id="stop105"
         stop-opacity="0.508"
         stop-color="#0071f3"
         offset="0.464" />
      <stop
         id="stop107"
         stop-opacity="0.143"
         stop-color="#007efc"
         offset="0.833" />
      <stop
         id="stop109"
         stop-opacity="0"
         stop-color="#0083ff"
         offset="1" />
    </linearGradient>
    <radialGradient
       gradientUnits="userSpaceOnUse"
       gradientTransform="matrix(1.219,0.123,-0.123,1.219,10296.265,9597.23)"
       r="165.97301"
       cy="-6769.7178"
       cx="-8836.5039"
       id="radial-gradient-3">
      <stop
         id="stop112"
         stop-opacity="0"
         stop-color="#ffe302"
         offset="0.625" />
      <stop
         id="stop114"
         stop-opacity="0.051"
         stop-color="#ffe302"
         offset="0.67" />
      <stop
         id="stop116"
         stop-opacity="0.185"
         stop-color="#ffe302"
         offset="0.751" />
      <stop
         id="stop118"
         stop-opacity="0.403"
         stop-color="#ffe302"
         offset="0.862" />
      <stop
         id="stop120"
         stop-opacity="0.7"
         stop-color="#ffe302"
         offset="0.995" />
    </radialGradient>
    <linearGradient
       gradientUnits="userSpaceOnUse"
       gradientTransform="matrix(0.995,0.1,-0.1,0.995,-173.696,1313.941)"
       y2="-1284.791"
       x2="153.75101"
       y1="-1032.953"
       x1="271.573"
       id="linear-gradient-9">
      <stop
         id="stop123"
         stop-opacity="0.5"
         stop-color="#4a1475"
         offset="0.187" />
      <stop
         id="stop125"
         stop-opacity="0.23"
         stop-color="#2277ac"
         offset="0.617" />
      <stop
         id="stop127"
         stop-opacity="0"
         stop-color="#00ccda"
         offset="0.944" />
    </linearGradient>
    <linearGradient
       gradientUnits="userSpaceOnUse"
       gradientTransform="matrix(0.995,0.1,-0.1,0.995,305.439,-246.471)"
       y2="825.58197"
       x2="117.458"
       y1="718.69501"
       x1="23.351"
       id="linear-gradient-10">
      <stop
         id="stop130"
         stop-opacity="0.5"
         stop-color="#002079"
         offset="0.005" />
      <stop
         id="stop132"
         stop-opacity="0"
         stop-color="#0083ff"
         offset="1" />
    </linearGradient>
    <linearGradient
       gradientUnits="userSpaceOnUse"
       gradientTransform="matrix(0.995,0.1,-0.1,0.995,305.439,-246.471)"
       y2="848.62402"
       x2="201.465"
       y1="902.047"
       x1="201.41701"
       id="linear-gradient-11">
      <stop
         id="stop135"
         stop-opacity="0.9"
         stop-color="#4a1475"
         offset="0.005" />
      <stop
         id="stop137"
         stop-opacity="0.603"
         stop-color="#6720a2"
         offset="0.184" />
      <stop
         id="stop139"
         stop-opacity="0.341"
         stop-color="#812acb"
         offset="0.382" />
      <stop
         id="stop141"
         stop-opacity="0.152"
         stop-color="#9332e8"
         offset="0.575" />
      <stop
         id="stop143"
         stop-opacity="0.039"
         stop-color="#9e36f9"
         offset="0.759" />
      <stop
         id="stop145"
         stop-opacity="0"
         stop-color="#a238ff"
         offset="0.926" />
    </linearGradient>
    <linearGradient
       gradientUnits="userSpaceOnUse"
       y2="721.61499"
       x2="962.50403"
       y1="38.119999"
       x1="656.84802"
       id="linear-gradient-12">
      <stop
         id="stop148"
         stop-opacity="0"
         stop-color="#00ec00"
         offset="0" />
      <stop
         id="stop150"
         stop-opacity="0.499"
         stop-color="#00dc6d"
         offset="0.28" />
      <stop
         id="stop152"
         stop-opacity="0.859"
         stop-color="#00d1bb"
         offset="0.499" />
      <stop
         id="stop154"
         stop-color="#00ccda"
         offset="0.598" />
      <stop
         id="stop156"
         stop-color="#04c9db"
         offset="0.677" />
      <stop
         id="stop158"
         stop-color="#0fc1df"
         offset="0.753" />
      <stop
         id="stop160"
         stop-color="#23b2e6"
         offset="0.828" />
      <stop
         id="stop162"
         stop-color="#3e9ef0"
         offset="0.902" />
      <stop
         id="stop164"
         stop-color="#6184fc"
         offset="0.975" />
      <stop
         id="stop166"
         stop-color="#6680fe"
         offset="0.985" />
    </linearGradient>
    <linearGradient
       gradientUnits="userSpaceOnUse"
       y2="819.96002"
       x2="572.41602"
       y1="431.20999"
       x1="717.20203"
       id="linear-gradient-13">
      <stop
         id="stop169"
         stop-color="#0083ff"
         offset="0" />
      <stop
         id="stop171"
         stop-opacity="0.923"
         stop-color="#0083ff"
         offset="0.036" />
      <stop
         id="stop173"
         stop-opacity="0.709"
         stop-color="#0083ff"
         offset="0.145" />
      <stop
         id="stop175"
         stop-opacity="0.52"
         stop-color="#0083ff"
         offset="0.258" />
      <stop
         id="stop177"
         stop-opacity="0.36"
         stop-color="#0083ff"
         offset="0.372" />
      <stop
         id="stop179"
         stop-opacity="0.23"
         stop-color="#0083ff"
         offset="0.489" />
      <stop
         id="stop181"
         stop-opacity="0.129"
         stop-color="#0083ff"
         offset="0.607" />
      <stop
         id="stop183"
         stop-opacity="0.057"
         stop-color="#0083ff"
         offset="0.73" />
      <stop
         id="stop185"
         stop-opacity="0.014"
         stop-color="#0083ff"
         offset="0.857" />
      <stop
         id="stop187"
         stop-opacity="0"
         stop-color="#0083ff"
         offset="1" />
    </linearGradient>
    <linearGradient
       y2="104.96"
       x2="384.54901"
       y1="731.18799"
       x1="575.987"
       gradientTransform="translate(1)"
       gradientUnits="userSpaceOnUse"
       id="linearGradient4729"
       xlink:href="#linear-gradient-2" />
  </defs>
  <title
     id="title192">firefox-logo-nightly</title>
  <g
     transform="matrix(0.01422764,0,0,0.01422764,-0.29878138,-0.02845584)"
     id="g4727">
    <path
       d="m 806.6,93.558 c -23.947,27.884 -35.1,90.639 -10.818,154.256 24.282,63.617 61.5,49.8 84.7,114.673 30.623,85.6 16.369,200.589 16.369,200.589 0,0 36.814,106.609 62.468,-6.633 C 1016.1,343.74 806.6,145.937 806.6,93.558 Z"
       style="fill:url(#linear-gradient)"
       id="path194" />
    <path
       id="_Path_"
       data-name="&lt;Path&gt;"
       d="m 513.238,974.829 c 245.236,0 443.9,-199.739 443.9,-446.028 C 957.138,282.512 758.475,82.774 513.476,82.774 268.477,82.774 69.817,282.512 69.817,528.8 69.341,775.328 268.24,974.829 513.238,974.829 Z"
       style="fill:url(#radial-gradient)" />
    <g
       id="g201">
      <path
         d="m 846.993,805.636 a 246.888,246.888 0 0 1 -30.123,18.183 704,704 0 0 0 38.3,-62.961 c 9.46,-10.47 18.126,-20.648 25.188,-31.653 3.437,-5.407 7.313,-12.079 11.416,-19.819 24.921,-44.9 52.4,-117.563 53.179,-192.2 v -0.18 c 0.018,-1.837 0.029,-3.675 0.014,-5.515 a 257.6,257.6 0 0 0 -5.712,-55.748 c 0.2,1.431 0.376,2.861 0.556,4.291 -0.221,-1.1 -0.407,-2.212 -0.644,-3.314 0.366,2.034 0.66,4 0.976,5.983 5.094,43.217 1.466,85.372 -16.682,116.45 -0.286,0.454 -0.58,0.879 -0.869,1.323 9.41,-47.234 12.558,-99.387 2.088,-151.6 0,0 -4.187,-25.383 -35.376,-102.441 -17.952,-44.353 -49.833,-80.716 -78,-107.207 -24.69,-30.546 -47.114,-51.045 -59.475,-64.06 C 726,127.971 715.179,107.591 710.735,94.293 706.882,92.361 657.6,44.486 653.685,42.662 632.174,76.015 564.523,180.337 596.7,277.809 c 14.584,44.172 51.467,90.017 90.067,115.736 1.695,1.936 22.969,25.042 33.086,77.157 10.453,53.848 4.958,95.862 -16.543,157.989 -25.286,54.505 -90.067,108.388 -150.724,113.9 -129.672,11.782 -177.145,-65.107 -177.145,-65.107 46.336,18.525 97.568,14.65 128.724,-4.556 31.4,-19.425 50.394,-33.827 65.81,-28.148 15.2,5.653 27.3,-10.756 16.442,-27.767 a 78.5,78.5 0 0 0 -79.4,-34.573 c -31.433,5.109 -60.226,30.009 -101.412,5.894 a 85.528,85.528 0 0 1 -7.729,-5.062 c -2.715,-1.785 8.826,2.717 6.133,0.688 -8.015,-4.354 -22.2,-13.842 -25.88,-17.217 -0.613,-0.562 6.219,2.179 5.606,1.616 -38.51,-31.712 -33.7,-53.134 -32.49,-66.57 0.969,-10.749 7.964,-24.523 19.751,-30.11 5.693,3.107 9.24,5.479 9.24,5.479 0,0 -2.428,-4.961 -3.741,-7.576 0.46,-0.2 0.9,-0.147 1.358,-0.342 4.664,2.251 14.977,8.1 20.407,11.667 7.072,4.988 9.326,9.436 9.326,9.436 0,0 1.862,-1.025 0.485,-5.375 -0.5,-1.784 -2.647,-7.453 -9.652,-13.174 l 0.438,0.049 a 81.2,81.2 0 0 1 11.867,8.241 c 1.975,-7.181 5.527,-14.679 4.746,-28.092 -0.477,-9.431 -0.257,-11.873 -1.919,-15.515 -1.488,-3.128 0.834,-4.348 3.418,-1.1 a 32.826,32.826 0 0 0 -2.208,-7.4 l 0.022,-0.244 c 3.225,-11.236 68.248,-40.461 72.981,-43.877 a 67.355,67.355 0 0 0 19.132,-20.8 c 3.617,-5.763 6.337,-13.848 7,-26.112 0.355,-8.844 -3.759,-14.734 -69.507,-21.618 -17.981,-1.771 -28.531,-14.8 -34.526,-26.823 -1.094,-2.59 -2.209,-4.937 -3.325,-7.282 a 58,58 0 0 1 -2.558,-8.431 c 10.749,-30.873 28.81,-56.977 55.367,-76.7 1.447,-1.318 -5.782,0.338 -4.336,-0.98 1.687,-1.538 12.706,-5.977 14.787,-6.977 2.542,-1.2 -10.882,-6.9 -22.732,-5.512 -12.069,1.36 -14.632,2.8 -21.073,5.531 2.673,-2.661 11.173,-6.149 9.18,-6.126 -13.011,1.995 -29.179,9.558 -43,18.124 A 10.731,10.731 0 0 1 393,195.8 c -6.441,2.732 -22.26,13.788 -26.865,23.142 a 44.329,44.329 0 0 0 0.266,-5.4 84.483,84.483 0 0 0 -13.193,13.819 l -0.241,0.219 c -37.358,-15.05 -70.233,-16.024 -98.053,-9.276 -6.086,-6.112 -9.059,-1.644 -22.907,-32.069 -0.941,-1.832 0.722,1.809 0,0 -2.278,-5.9 1.389,7.872 0,0 -23.284,18.372 -53.92,39.193 -68.626,53.89 -0.182,0.586 17.156,-4.9 0,0 -6.008,1.716 -5.6,5.281 -6.513,37.5 -0.22,2.443 -0.025,5.179 -0.223,7.378 -11.748,14.968 -19.749,27.643 -22.775,34.211 -15.193,26.18 -31.926,66.992 -48.146,131.551 a 334.364,334.364 0 0 1 25.784,-50.407 C 98.02,434.625 84.981,488.436 82.374,571.303 a 483.614,483.614 0 0 1 12.533,-50.66 473.038,473.038 0 0 0 34.74,201.061 c 9.329,22.821 24.76,57.455 51.029,95.4 82.533,86.839 198.945,140.9 327.852,140.9 134.581,0.008 255.425,-58.871 338.465,-152.368 z"
         style="fill:url(#linearGradient4729)"
         id="path197" />
      <path
         d="m 846.993,805.636 a 246.888,246.888 0 0 1 -30.123,18.183 704,704 0 0 0 38.3,-62.961 c 9.46,-10.47 18.126,-20.648 25.188,-31.653 3.437,-5.407 7.313,-12.079 11.416,-19.819 24.921,-44.9 52.4,-117.563 53.179,-192.2 v -0.18 c 0.018,-1.837 0.029,-3.675 0.014,-5.515 a 257.6,257.6 0 0 0 -5.712,-55.748 c 0.2,1.431 0.376,2.861 0.556,4.291 -0.221,-1.1 -0.407,-2.212 -0.644,-3.314 0.366,2.034 0.66,4 0.976,5.983 5.094,43.217 1.466,85.372 -16.682,116.45 -0.286,0.454 -0.58,0.879 -0.869,1.323 9.41,-47.234 12.558,-99.387 2.088,-151.6 0,0 -4.187,-25.383 -35.376,-102.441 -17.952,-44.353 -49.833,-80.716 -78,-107.207 -24.69,-30.546 -47.114,-51.045 -59.475,-64.06 C 726,127.971 715.179,107.591 710.735,94.293 706.882,92.361 657.6,44.486 653.685,42.662 632.174,76.015 564.523,180.337 596.7,277.809 c 14.584,44.172 51.467,90.017 90.067,115.736 1.695,1.936 22.969,25.042 33.086,77.157 10.453,53.848 4.958,95.862 -16.543,157.989 -25.286,54.505 -90.067,108.388 -150.724,113.9 -129.672,11.782 -177.145,-65.107 -177.145,-65.107 46.336,18.525 97.568,14.65 128.724,-4.556 31.4,-19.425 50.394,-33.827 65.81,-28.148 15.2,5.653 27.3,-10.756 16.442,-27.767 a 78.5,78.5 0 0 0 -79.4,-34.573 c -31.433,5.109 -60.226,30.009 -101.412,5.894 a 85.528,85.528 0 0 1 -7.729,-5.062 c -2.715,-1.785 8.826,2.717 6.133,0.688 -8.015,-4.354 -22.2,-13.842 -25.88,-17.217 -0.613,-0.562 6.219,2.179 5.606,1.616 -38.51,-31.712 -33.7,-53.134 -32.49,-66.57 0.969,-10.749 7.964,-24.523 19.751,-30.11 5.693,3.107 9.24,5.479 9.24,5.479 0,0 -2.428,-4.961 -3.741,-7.576 0.46,-0.2 0.9,-0.147 1.358,-0.342 4.664,2.251 14.977,8.1 20.407,11.667 7.072,4.988 9.326,9.436 9.326,9.436 0,0 1.862,-1.025 0.485,-5.375 -0.5,-1.784 -2.647,-7.453 -9.652,-13.174 l 0.438,0.049 a 81.2,81.2 0 0 1 11.867,8.241 c 1.975,-7.181 5.527,-14.679 4.746,-28.092 -0.477,-9.431 -0.257,-11.873 -1.919,-15.515 -1.488,-3.128 0.834,-4.348 3.418,-1.1 a 32.826,32.826 0 0 0 -2.208,-7.4 l 0.022,-0.244 c 3.225,-11.236 68.248,-40.461 72.981,-43.877 a 67.355,67.355 0 0 0 19.132,-20.8 c 3.617,-5.763 6.337,-13.848 7,-26.112 0.355,-8.844 -3.759,-14.734 -69.507,-21.618 -17.981,-1.771 -28.531,-14.8 -34.526,-26.823 -1.094,-2.59 -2.209,-4.937 -3.325,-7.282 a 58,58 0 0 1 -2.558,-8.431 c 10.749,-30.873 28.81,-56.977 55.367,-76.7 1.447,-1.318 -5.782,0.338 -4.336,-0.98 1.687,-1.538 12.706,-5.977 14.787,-6.977 2.542,-1.2 -10.882,-6.9 -22.732,-5.512 -12.069,1.36 -14.632,2.8 -21.073,5.531 2.673,-2.661 11.173,-6.149 9.18,-6.126 -13.011,1.995 -29.179,9.558 -43,18.124 A 10.731,10.731 0 0 1 393,195.8 c -6.441,2.732 -22.26,13.788 -26.865,23.142 a 44.329,44.329 0 0 0 0.266,-5.4 84.483,84.483 0 0 0 -13.193,13.819 l -0.241,0.219 c -37.358,-15.05 -70.233,-16.024 -98.053,-9.276 -6.086,-6.112 -9.059,-1.644 -22.907,-32.069 -0.941,-1.832 0.722,1.809 0,0 -2.278,-5.9 1.389,7.872 0,0 -23.284,18.372 -53.92,39.193 -68.626,53.89 -0.182,0.586 17.156,-4.9 0,0 -6.008,1.716 -5.6,5.281 -6.513,37.5 -0.22,2.443 -0.025,5.179 -0.223,7.378 -11.748,14.968 -19.749,27.643 -22.775,34.211 -15.193,26.18 -31.926,66.992 -48.146,131.551 a 334.364,334.364 0 0 1 25.784,-50.407 C 98.02,434.625 84.981,488.436 82.374,571.303 a 483.614,483.614 0 0 1 12.533,-50.66 473.038,473.038 0 0 0 34.74,201.061 c 9.329,22.821 24.76,57.455 51.029,95.4 82.533,86.839 198.945,140.9 327.852,140.9 134.581,0.008 255.425,-58.871 338.465,-152.368 z"
         style="fill:url(#linear-gradient-3)"
         id="path199" />
    </g>
    <path
       d="m 747.417,868.708 c 162.87,-18.86 234.969,-186.7 142.381,-190 -83.633,-2.673 -219.527,198.9 -142.381,190 z"
       style="fill:url(#linear-gradient-4)"
       id="path203" />
    <path
       d="m 901.524,644.424 c 112.056,-65.214 82.839,-206.08 82.839,-206.08 0,0 -43.247,50.239 -72.625,130.321 -29.025,79.298 -77.583,115.147 -10.214,75.759 z"
       style="fill:url(#linear-gradient-5)"
       id="path205" />
    <path
       d="m 545.792,952.062 c 156.227,49.851 290.5,-73.22 207.733,-114.32 -75.251,-37.066 -281.883,90.748 -207.733,114.32 z"
       style="fill:url(#linear-gradient-6)"
       id="path207" />
    <path
       d="m 674.9,23.42 c 0.347,-0.379 0.531,-0.573 0.531,-0.573 A 1.784,1.784 0 0 0 674.9,23.42 Z m 238.27,680.814 c 3.8,-5.363 8.94,-22.535 13.48,-30.211 27.578,-44.523 27.773,-80.023 27.773,-80.836 16.659,-83.219 15.148,-117.2 4.9,-180.043 -8.251,-50.6 -44.322,-123.092 -75.57,-158 -32.2,-35.965 -9.514,-24.247 -40.692,-50.518 C 815.734,174.333 789.238,144.335 774.808,132.271 670.533,45.094 672.888,26.577 674.9,23.42 c -0.339,0.371 -0.837,0.922 -1.472,1.643 -1.239,-4.923 -2.11,-9.063 -2.11,-9.063 0,0 -57,57 -69,152 -7.834,62.021 15.383,126.676 49,168 a 381.367,381.367 0 0 0 59,58 v -0.026 c 25.4,36.477 39.38,81.489 39.38,129.909 0,121.244 -98.341,219.531 -219.652,219.531 A 220.455,220.455 0 0 1 480.91,737.9 c -57.236,-10.908 -90.288,-39.781 -106.772,-59.382 -9.447,-11.234 -13.464,-19.423 -13.464,-19.423 51.283,18.371 107.986,14.528 142.468,-4.518 34.749,-19.265 55.774,-33.546 72.837,-27.915 16.82,5.606 30.211,-10.667 18.2,-27.536 -11.771,-16.845 -42.4,-40.97 -87.878,-34.286 -34.789,5.067 -66.657,29.76 -112.24,5.845 a 96.313,96.313 0 0 1 -8.554,-5.02 c -3.005,-1.771 9.768,2.695 6.787,0.682 -8.87,-4.318 -24.573,-13.728 -28.643,-17.074 -0.679,-0.557 6.883,2.161 6.2,1.6 -42.621,-31.449 -37.3,-52.693 -35.959,-66.018 1.073,-10.66 8.814,-24.32 21.859,-29.86 6.3,3.081 10.226,5.433 10.226,5.433 0,0 -2.688,-4.92 -4.141,-7.513 0.509,-0.194 0.994,-0.145 1.5,-0.339 5.162,2.232 16.576,8.029 22.586,11.57 7.827,4.947 10.322,9.358 10.322,9.358 0,0 2.061,-1.016 0.536,-5.33 -0.557,-1.769 -2.929,-7.391 -10.682,-13.065 l 0.485,0.049 a 90.851,90.851 0 0 1 13.134,8.173 c 2.186,-7.121 6.118,-14.557 5.253,-27.859 -0.528,-9.352 -0.284,-11.775 -2.124,-15.386 -1.647,-3.1 0.924,-4.312 3.782,-1.088 a 30.038,30.038 0 0 0 -2.444,-7.343 l 0.025,-0.242 c 3.57,-11.143 75.535,-40.125 80.773,-43.513 a 70.31,70.31 0 0 0 21.175,-20.63 c 4,-5.715 7.014,-13.733 7.748,-25.895 0.246,-5.48 -1.441,-9.817 -20.5,-13.965 -11.439,-2.49 -29.136,-4.913 -56.433,-7.474 -19.9,-1.756 -31.577,-14.676 -38.212,-26.6 -1.211,-2.569 -2.445,-4.9 -3.68,-7.222 a 53.108,53.108 0 0 1 -2.831,-8.36 158.47,158.47 0 0 1 61.279,-76.063 c 1.6,-1.308 -6.4,0.335 -4.8,-0.972 1.868,-1.525 14.063,-5.927 16.367,-6.919 2.813,-1.186 -12.044,-6.84 -25.159,-5.466 -13.357,1.349 -16.194,2.776 -23.323,5.486 2.959,-2.639 12.366,-6.1 10.161,-6.075 -14.4,1.978 -32.3,9.479 -47.6,17.973 a 9.676,9.676 0 0 1 0.924,-4.312 c -7.129,2.709 -24.637,13.674 -29.734,22.95 a 39.488,39.488 0 0 0 0.306,-5.356 88.678,88.678 0 0 0 -14.6,13.7 l -0.267,0.218 c -41.347,-14.925 -77.732,-15.891 -108.522,-9.2 -6.736,-6.061 -17.566,-15.226 -32.892,-45.4 -1.041,-1.817 -1.6,3.755 -2.4,1.961 -5.955,-13.813 -9.553,-36.444 -8.962,-52.046 0,0 -12.318,5.614 -22.513,29.06 -1.893,4.215 -3.107,6.54 -4.32,8.865 -0.558,0.678 1.265,-7.7 0.974,-7.244 -1.772,3 -6.356,7.192 -8.371,12.618 -1.384,4.021 -3.325,6.273 -4.564,11.288 l -0.291,0.46 c -0.1,-1.478 0.367,-6.081 0.027,-5.137 a 236.1,236.1 0 0 0 -12.308,29.841 c -5.489,18.046 -11.879,42.61 -12.892,74.565 -0.244,2.423 -0.027,5.136 -0.247,7.317 -13,14.844 -21.858,27.413 -25.207,33.928 C 76.5,329.762 57.978,370.236 40.025,434.259 A 319.143,319.143 0 0 1 68.562,384.27 C 53.634,418.253 39.2,471.618 36.318,553.8 A 438.522,438.522 0 0 1 50.19,503.56 c -2.578,54.8 3.805,122.74 38.449,199.393 20.57,45.087 67.921,136.649 183.62,208.1 l -0.01,0.007 c 0,0 39.36,29.3 107.017,51.259 5,1.814 10.065,3.6 15.234,5.333 -1.622,-0.655 -3.191,-1.344 -4.715,-2.052 a 484.883,484.883 0 0 0 138.8,20.4 c 175.18,0.149 226.846,-70.2 226.846,-70.2 0,0 -0.182,0.137 -0.513,0.377 q 3.708,-3.491 7.143,-7.257 c -27.639,26.1 -90.715,27.832 -114.3,25.949 40.223,-11.813 66.691,-21.806 118.175,-41.519 q 9.032,-3.355 18.478,-7.645 c 0.681,-0.3 1.368,-0.625 2.052,-0.936 1.249,-0.582 2.486,-1.132 3.747,-1.744 a 349.205,349.205 0 0 0 70.262,-43.987 c 51.7,-41.3 62.949,-81.557 68.829,-108.1 -0.82,2.544 -3.375,8.475 -5.17,12.316 -13.315,28.482 -42.841,45.959 -74.908,60.948 a 688.993,688.993 0 0 0 42.384,-62.438 c 10.475,-10.374 13.741,-26.616 21.556,-37.53 z"
       style="fill:url(#radial-gradient-2)"
       id="path209" />
    <path
       d="m 850.239,802.982 c 21.08,-23.241 40.01,-49.824 54.349,-79.968 36.9,-77.582 93.952,-206.58 49.018,-341.306 C 918.092,275.225 869.333,217 807.424,160.122 706.881,67.756 678.8,26.521 678.8,2 678.8,2 562.711,131.409 613.058,266.381 663.405,401.353 766.52,396.405 834.737,537.255 915.011,703 769.788,883.869 649.693,934.493 c 7.353,-1.633 266.97,-60.383 280.614,-208.882 -0.307,2.731 -6.159,43.803 -80.068,77.371 z"
       style="fill:url(#linear-gradient-7)"
       id="path211" />
    <g
       id="g217">
      <path
         d="m 513.91,321.373 c 0.393,-8.77 -4.156,-14.66 -76.682,-21.463 -29.839,-2.755 -41.265,-30.334 -44.748,-41.941 -10.61,27.565 -14.991,56.49 -12.636,91.477 1.61,22.92 17.009,47.521 24.37,61.965 0,0 1.636,-2.126 2.391,-2.912 13.861,-14.431 71.936,-36.419 77.392,-39.541 6.014,-3.799 28.903,-20.523 29.913,-47.585 z"
         style="fill:url(#linear-gradient-8)"
         id="path213" />
      <path
         d="m 513.91,321.373 c 0.393,-8.77 -4.156,-14.66 -76.682,-21.463 -29.839,-2.755 -41.265,-30.334 -44.748,-41.941 -10.61,27.565 -14.991,56.49 -12.636,91.477 1.61,22.92 17.009,47.521 24.37,61.965 0,0 1.636,-2.126 2.391,-2.912 13.861,-14.431 71.936,-36.419 77.392,-39.541 6.014,-3.799 28.903,-20.523 29.913,-47.585 z"
         style="opacity:0.5;fill:url(#radial-gradient-3)"
         id="path215" />
    </g>
    <path
       d="m 194.632,158.471 c -1.041,-1.818 -1.6,3.754 -2.4,1.961 -5.955,-13.813 -9.578,-36.2 -8.72,-52.022 0,0 -12.318,5.614 -22.513,29.06 -1.893,4.215 -3.107,6.54 -4.32,8.865 -0.558,0.678 1.265,-7.7 0.974,-7.244 -1.771,3 -6.355,7.192 -8.346,12.375 -1.651,4.239 -3.349,6.515 -4.613,11.772 -0.389,1.429 0.392,-6.323 0.052,-5.379 -23.711,45.825 -28.237,115.114 -25.738,112.184 50.478,-53.9 108.325,-66.683 108.325,-66.683 -6.155,-4.534 -19.528,-17.625 -32.7,-44.889 z"
       style="fill:url(#linear-gradient-9)"
       id="path219" />
    <path
       d="M 386.162,722.1 C 316.438,692.331 237.17,650.345 240.162,554.962 244.235,429.347 357.3,454.175 357.3,454.175 c -4.267,1.039 -15.675,9.162 -19.718,17.82 -4.273,10.827 -12.069,35.276 11.551,60.9 37.089,40.192 -76.2,95.356 98.663,199.567 4.41,2.4 -40.991,-1.43 -61.639,-10.358 z"
       style="fill:url(#linear-gradient-10)"
       id="path221" />
    <path
       d="m 361.391,659.5 c 49.442,17.207 107.04,14.189 141.523,-4.858 23.085,-12.851 52.7,-33.434 70.922,-28.353 -15.777,-6.236 -27.726,-9.15 -42.1,-9.862 -2.448,0 -5.382,-0.052 -8.048,-0.32 a 136.228,136.228 0 0 0 -15.757,0.863 c -8.9,0.818 -18.766,6.433 -27.735,5.532 -0.485,-0.049 8.7,-3.774 7.953,-3.605 -4.752,0.991 -9.915,1.205 -15.37,1.881 -3.467,0.386 -6.449,0.82 -9.891,0.963 -102.982,8.733 -190.017,-55.813 -190.017,-55.813 -7.408,24.95 33.166,74.3 88.521,93.572 z"
       style="opacity:0.5;fill:url(#linear-gradient-11)"
       id="path223" />
    <path
       d="m 850.055,803.646 c 104.164,-102.269 156.858,-226.585 134.584,-366.018 0,0 8.9,71.5 -24.848,144.628 16.213,-71.393 18.1,-160.114 -24.975,-251.988 C 877.323,207.636 782.768,143.109 746.669,116.189 691.974,75.4 669.3,33.87 668.892,25.3 c -16.339,33.477 -65.766,148.2 -5.31,247 56.64,92.564 145.865,120.039 208.328,204.947 115.074,156.42 -21.855,326.399 -21.855,326.399 z"
       style="fill:url(#linear-gradient-12)"
       id="path225" />
    <path
       d="m 835.132,537.551 c -36.4,-75.2 -81.837,-108 -124.814,-143.551 5,7 6.232,9.473 9,14 37.827,40.316 93.607,138.656 53.11,262.107 -76.228,232.375 -381.144,122.95 -413.11,92.212 12.932,134.489 238.036,198.845 384.6,111.63 83.4,-78.949 150.868,-213.161 91.214,-336.398 z"
       style="fill:url(#linear-gradient-13)"
       id="path227" />
  </g>
</svg>
