<?xml version="1.0" encoding="UTF-8" standalone="no"?>
<svg
   xmlns:dc="http://purl.org/dc/elements/1.1/"
   xmlns:cc="http://creativecommons.org/ns#"
   xmlns:rdf="http://www.w3.org/1999/02/22-rdf-syntax-ns#"
   xmlns:svg="http://www.w3.org/2000/svg"
   xmlns="http://www.w3.org/2000/svg"
   xmlns:xlink="http://www.w3.org/1999/xlink"
   id="Firefox"
   viewBox="0 0 14 14"
   version="1.1"
   width="14"
   height="14">
  <metadata
     id="metadata232">
    <rdf:RDF>
      <cc:Work
         rdf:about="">
        <dc:format>image/svg+xml</dc:format>
        <dc:type
           rdf:resource="http://purl.org/dc/dcmitype/StillImage" />
        <dc:title>firefox-logo-nightly</dc:title>
      </cc:Work>
    </rdf:RDF>
  </metadata>
  <defs
     id="defs190">
    <linearGradient
       id="linear-gradient"
       x1="-14694.371"
       y1="-8233.5605"
       x2="-14431.129"
       y2="-8233.5605"
       gradientTransform="matrix(0.01084146,4.8373976e-4,-7.11382e-4,0.01593496,164.18544,143.23112)"
       gradientUnits="userSpaceOnUse">
      <stop
         offset="0"
         stop-color="#0083ff"
         id="stop2" />
      <stop
         offset="0.098"
         stop-color="#0092f8"
         id="stop4" />
      <stop
         offset="0.306"
         stop-color="#00abeb"
         id="stop6" />
      <stop
         offset="0.521"
         stop-color="#00bee1"
         id="stop8" />
      <stop
         offset="0.747"
         stop-color="#00c8dc"
         id="stop10" />
      <stop
         offset="0.999"
         stop-color="#00ccda"
         id="stop12" />
    </linearGradient>
    <radialGradient
       id="radial-gradient"
       cx="-7529.5332"
       cy="-7923.085"
       r="791.229"
       gradientTransform="matrix(0.01742886,0,0,0.01742886,140.86734,140.81242)"
       gradientUnits="userSpaceOnUse">
      <stop
         offset="0.025"
         stop-color="#005fe7"
         id="stop15" />
      <stop
         offset="0.177"
         stop-color="#0042b4"
         id="stop17" />
      <stop
         offset="0.323"
         stop-color="#002989"
         id="stop19" />
      <stop
         offset="0.397"
         stop-color="#002079"
         id="stop21" />
      <stop
         offset="0.473"
         stop-color="#131d78"
         id="stop23" />
      <stop
         offset="0.658"
         stop-color="#3b1676"
         id="stop25" />
      <stop
         offset="0.753"
         stop-color="#4a1475"
         id="stop27" />
    </radialGradient>
    <linearGradient
       id="linear-gradient-2"
       x1="575.987"
       y1="731.18799"
       x2="384.54901"
       y2="104.96"
       gradientTransform="translate(1)"
       gradientUnits="userSpaceOnUse">
      <stop
         offset="0"
         stop-color="#000f43"
         stop-opacity="0.4"
         id="stop30" />
      <stop
         offset="0.485"
         stop-color="#001962"
         stop-opacity="0.173"
         id="stop32" />
      <stop
         offset="1"
         stop-color="#002079"
         stop-opacity="0"
         id="stop34" />
    </linearGradient>
    <linearGradient
       id="linear-gradient-3"
       x1="576.987"
       y1="731.18799"
       x2="385.54901"
       y2="104.96"
       xlink:href="#linear-gradient-2" />
    <linearGradient
       id="linear-gradient-4"
       x1="-8290.0605"
       y1="-6383.7168"
       x2="-8405.3047"
       y2="-6392.6128"
       gradientTransform="matrix(0.01734349,0.00175,-0.00175,0.01734349,146.19277,136.51748)"
       gradientUnits="userSpaceOnUse">
      <stop
         offset="0"
         stop-color="#812cc9"
         id="stop38" />
      <stop
         offset="1"
         stop-color="#005fe7"
         id="stop40" />
    </linearGradient>
    <linearGradient
       id="linear-gradient-5"
       x1="-8375.0332"
       y1="-6548.7749"
       x2="-8267.083"
       y2="-6660.8979"
       gradientTransform="matrix(0.01734349,0.00175,-0.00175,0.01734349,146.19277,136.51748)"
       gradientUnits="userSpaceOnUse">
      <stop
         offset="0.049"
         stop-color="#005fe7"
         id="stop43" />
      <stop
         offset="0.177"
         stop-color="#065de6"
         id="stop45" />
      <stop
         offset="0.353"
         stop-color="#1856e1"
         id="stop47" />
      <stop
         offset="0.557"
         stop-color="#354adb"
         id="stop49" />
      <stop
         offset="0.78"
         stop-color="#5d3ad1"
         id="stop51" />
      <stop
         offset="0.951"
         stop-color="#812cc9"
         id="stop53" />
    </linearGradient>
    <linearGradient
       id="linear-gradient-6"
       x1="-8575.3213"
       y1="-6281.0332"
       x2="-8344.4326"
       y2="-6280.4912"
       gradientTransform="matrix(0.01734349,0.00175,-0.00175,0.01734349,146.19277,136.51748)"
       gradientUnits="userSpaceOnUse">
      <stop
         offset="0"
         stop-color="#002079"
         id="stop56" />
      <stop
         offset="0.995"
         stop-color="#a238ff"
         id="stop58" />
    </linearGradient>
    <radialGradient
       xlink:href="#linear-gradient-7"
       gradientTransform="matrix(0.01422764,0,0,0.01422764,-0.29878138,-0.02845584)"
       id="radial-gradient-2"
       cx="680.43103"
       cy="386.17401"
       fx="821.36304"
       fy="257.02893"
       r="793.95001"
       gradientUnits="userSpaceOnUse">
      <stop
         offset="0.203"
         stop-color="#00fdff"
         id="stop61" />
      <stop
         offset="0.264"
         stop-color="#0af1ff"
         id="stop63" />
      <stop
         offset="0.372"
         stop-color="#23d2ff"
         id="stop65" />
      <stop
         offset="0.517"
         stop-color="#4da0ff"
         id="stop67" />
      <stop
         offset="0.689"
         stop-color="#855bff"
         id="stop69" />
      <stop
         offset="0.77"
         stop-color="#a238ff"
         id="stop71" />
      <stop
         offset="0.809"
         stop-color="#a738fd"
         id="stop73" />
      <stop
         offset="0.855"
         stop-color="#b539f9"
         id="stop75" />
      <stop
         offset="0.905"
         stop-color="#cd39f1"
         id="stop77" />
      <stop
         offset="0.956"
         stop-color="#ee3ae6"
         id="stop79" />
      <stop
         offset="0.979"
         stop-color="#ff3be0"
         id="stop81" />
    </radialGradient>
    <linearGradient
       id="linear-gradient-7"
       x1="-7424.6079"
       y1="-8151.9331"
       x2="-7496.6992"
       y2="-7341.604"
       gradientTransform="matrix(0.01742886,0,0,0.01742886,140.86734,140.81242)"
       gradientUnits="userSpaceOnUse">
      <stop
         offset="0"
         stop-color="#00ec00"
         id="stop84" />
      <stop
         offset="0.096"
         stop-color="#00e244"
         id="stop86" />
      <stop
         offset="0.219"
         stop-color="#00d694"
         id="stop88" />
      <stop
         offset="0.306"
         stop-color="#00cfc7"
         id="stop90" />
      <stop
         offset="0.348"
         stop-color="#00ccda"
         id="stop92" />
      <stop
         offset="0.422"
         stop-color="#0bc2dd"
         stop-opacity="0.923"
         id="stop94" />
      <stop
         offset="0.567"
         stop-color="#29a7e4"
         stop-opacity="0.723"
         id="stop96" />
      <stop
         offset="0.77"
         stop-color="#597df0"
         stop-opacity="0.401"
         id="stop98" />
      <stop
         offset="1"
         stop-color="#9448ff"
         stop-opacity="0"
         id="stop100" />
    </linearGradient>
    <linearGradient
       id="linear-gradient-8"
       x1="-8848.4951"
       y1="-6716.1431"
       x2="-8712.0273"
       y2="-6716.1431"
       gradientTransform="matrix(1.219,0.123,-0.123,1.219,10296.265,9597.23)"
       gradientUnits="userSpaceOnUse">
      <stop
         offset="0"
         stop-color="#005fe7"
         id="stop103" />
      <stop
         offset="0.464"
         stop-color="#0071f3"
         stop-opacity="0.508"
         id="stop105" />
      <stop
         offset="0.833"
         stop-color="#007efc"
         stop-opacity="0.143"
         id="stop107" />
      <stop
         offset="1"
         stop-color="#0083ff"
         stop-opacity="0"
         id="stop109" />
    </linearGradient>
    <radialGradient
       id="radial-gradient-3"
       cx="-8836.5039"
       cy="-6769.7178"
       r="165.97301"
       gradientTransform="matrix(1.219,0.123,-0.123,1.219,10296.265,9597.23)"
       gradientUnits="userSpaceOnUse">
      <stop
         offset="0.625"
         stop-color="#ffe302"
         stop-opacity="0"
         id="stop112" />
      <stop
         offset="0.67"
         stop-color="#ffe302"
         stop-opacity="0.051"
         id="stop114" />
      <stop
         offset="0.751"
         stop-color="#ffe302"
         stop-opacity="0.185"
         id="stop116" />
      <stop
         offset="0.862"
         stop-color="#ffe302"
         stop-opacity="0.403"
         id="stop118" />
      <stop
         offset="0.995"
         stop-color="#ffe302"
         stop-opacity="0.7"
         id="stop120" />
    </radialGradient>
    <linearGradient
       id="linear-gradient-9"
       x1="271.573"
       y1="-1032.953"
       x2="153.75101"
       y2="-1284.791"
       gradientTransform="matrix(0.0141565,0.00142276,-0.00142276,0.0141565,-2.7700655,18.665824)"
       gradientUnits="userSpaceOnUse">
      <stop
         offset="0.187"
         stop-color="#4a1475"
         stop-opacity="0.5"
         id="stop123" />
      <stop
         offset="0.617"
         stop-color="#2277ac"
         stop-opacity="0.23"
         id="stop125" />
      <stop
         offset="0.944"
         stop-color="#00ccda"
         stop-opacity="0"
         id="stop127" />
    </linearGradient>
    <linearGradient
       id="linear-gradient-10"
       x1="23.351"
       y1="718.69501"
       x2="117.458"
       y2="825.58197"
       gradientTransform="matrix(0.0141565,0.00142276,-0.00142276,0.0141565,4.0468948,-3.5351565)"
       gradientUnits="userSpaceOnUse">
      <stop
         offset="0.005"
         stop-color="#002079"
         stop-opacity="0.5"
         id="stop130" />
      <stop
         offset="1"
         stop-color="#0083ff"
         stop-opacity="0"
         id="stop132" />
    </linearGradient>
    <linearGradient
       id="linear-gradient-11"
       x1="201.41701"
       y1="902.047"
       x2="201.465"
       y2="848.62402"
       gradientTransform="matrix(0.0141565,0.00142276,-0.00142276,0.0141565,4.0468948,-3.5351565)"
       gradientUnits="userSpaceOnUse">
      <stop
         offset="0.005"
         stop-color="#4a1475"
         stop-opacity="0.9"
         id="stop135" />
      <stop
         offset="0.184"
         stop-color="#6720a2"
         stop-opacity="0.603"
         id="stop137" />
      <stop
         offset="0.382"
         stop-color="#812acb"
         stop-opacity="0.341"
         id="stop139" />
      <stop
         offset="0.575"
         stop-color="#9332e8"
         stop-opacity="0.152"
         id="stop141" />
      <stop
         offset="0.759"
         stop-color="#9e36f9"
         stop-opacity="0.039"
         id="stop143" />
      <stop
         offset="0.926"
         stop-color="#a238ff"
         stop-opacity="0"
         id="stop145" />
    </linearGradient>
    <linearGradient
       gradientTransform="matrix(0.01422764,0,0,0.01422764,-0.29878138,-0.02845584)"
       id="linear-gradient-12"
       x1="656.84802"
       y1="38.119999"
       x2="962.50403"
       y2="721.61499"
       gradientUnits="userSpaceOnUse">
      <stop
         offset="0"
         stop-color="#00ec00"
         stop-opacity="0"
         id="stop148" />
      <stop
         offset="0.28"
         stop-color="#00dc6d"
         stop-opacity="0.499"
         id="stop150" />
      <stop
         offset="0.499"
         stop-color="#00d1bb"
         stop-opacity="0.859"
         id="stop152" />
      <stop
         offset="0.598"
         stop-color="#00ccda"
         id="stop154" />
      <stop
         offset="0.677"
         stop-color="#04c9db"
         id="stop156" />
      <stop
         offset="0.753"
         stop-color="#0fc1df"
         id="stop158" />
      <stop
         offset="0.828"
         stop-color="#23b2e6"
         id="stop160" />
      <stop
         offset="0.902"
         stop-color="#3e9ef0"
         id="stop162" />
      <stop
         offset="0.975"
         stop-color="#6184fc"
         id="stop164" />
      <stop
         offset="0.985"
         stop-color="#6680fe"
         id="stop166" />
    </linearGradient>
    <linearGradient
       gradientTransform="matrix(0.01422764,0,0,0.01422764,-0.29878138,-0.02845584)"
       id="linear-gradient-13"
       x1="717.20203"
       y1="431.20999"
       x2="572.41602"
       y2="819.96002"
       gradientUnits="userSpaceOnUse">
      <stop
         offset="0"
         stop-color="#0083ff"
         id="stop169" />
      <stop
         offset="0.036"
         stop-color="#0083ff"
         stop-opacity="0.923"
         id="stop171" />
      <stop
         offset="0.145"
         stop-color="#0083ff"
         stop-opacity="0.709"
         id="stop173" />
      <stop
         offset="0.258"
         stop-color="#0083ff"
         stop-opacity="0.52"
         id="stop175" />
      <stop
         offset="0.372"
         stop-color="#0083ff"
         stop-opacity="0.36"
         id="stop177" />
      <stop
         offset="0.489"
         stop-color="#0083ff"
         stop-opacity="0.23"
         id="stop179" />
      <stop
         offset="0.607"
         stop-color="#0083ff"
         stop-opacity="0.129"
         id="stop181" />
      <stop
         offset="0.73"
         stop-color="#0083ff"
         stop-opacity="0.057"
         id="stop183" />
      <stop
         offset="0.857"
         stop-color="#0083ff"
         stop-opacity="0.014"
         id="stop185" />
      <stop
         offset="1"
         stop-color="#0083ff"
         stop-opacity="0"
         id="stop187" />
    </linearGradient>
    <linearGradient
       xlink:href="#linear-gradient-2"
       id="linearGradient4729"
       gradientUnits="userSpaceOnUse"
       gradientTransform="translate(1)"
       x1="575.987"
       y1="731.18799"
       x2="384.54901"
       y2="104.96" />
  </defs>
  <title
     id="title192">firefox-logo-nightly</title>
  <path
     d="m 11.177233,1.3026537 c -0.340709,0.3967235 -0.49939,1.2895791 -0.153915,2.1946988 0.345476,0.9051198 0.875,0.7085365 1.205082,1.6315262 0.435693,1.217886 0.232892,2.8539081 0.232892,2.8539081 0,0 0.523776,1.5167945 0.888772,-0.094372 0.80786,-3.0262617 -2.172831,-5.8405315 -2.172831,-6.5857611 z"
     style="fill:url(#linear-gradient);stroke-width:0.01422764"
     id="path194" />
  <path
     id="_Path_"
     data-name="&lt;Path&gt;"
     d="m 7.0033841,13.84106 c 3.4891299,0 6.3156499,-2.841814 6.3156499,-6.3459256 0,-3.5041112 -2.826506,-6.3459116 -6.3122637,-6.3459116 -3.4857576,0 -6.3122205,2.8418004 -6.3122205,6.3458974 -0.00677,3.5075118 2.823091,6.3459398 6.3088343,6.3459398 z"
     style="fill:#008000;fill-opacity:1;stroke-width:0.01422764" />
  <g
     transform="matrix(0.01422764,0,0,0.01422764,-0.29878138,-0.02845584)"
     id="g201">
    <path
       d="m 846.993,805.636 a 246.888,246.888 0 0 1 -30.123,18.183 704,704 0 0 0 38.3,-62.961 c 9.46,-10.47 18.126,-20.648 25.188,-31.653 3.437,-5.407 7.313,-12.079 11.416,-19.819 24.921,-44.9 52.4,-117.563 53.179,-192.2 v -0.18 c 0.018,-1.837 0.029,-3.675 0.014,-5.515 a 257.6,257.6 0 0 0 -5.712,-55.748 c 0.2,1.431 0.376,2.861 0.556,4.291 -0.221,-1.1 -0.407,-2.212 -0.644,-3.314 0.366,2.034 0.66,4 0.976,5.983 5.094,43.217 1.466,85.372 -16.682,116.45 -0.286,0.454 -0.58,0.879 -0.869,1.323 9.41,-47.234 12.558,-99.387 2.088,-151.6 0,0 -4.187,-25.383 -35.376,-102.441 -17.952,-44.353 -49.833,-80.716 -78,-107.207 -24.69,-30.546 -47.114,-51.045 -59.475,-64.06 C 726,127.971 715.179,107.591 710.735,94.293 706.882,92.361 657.6,44.486 653.685,42.662 632.174,76.015 564.523,180.337 596.7,277.809 c 14.584,44.172 51.467,90.017 90.067,115.736 1.695,1.936 22.969,25.042 33.086,77.157 10.453,53.848 4.958,95.862 -16.543,157.989 -25.286,54.505 -90.067,108.388 -150.724,113.9 -129.672,11.782 -177.145,-65.107 -177.145,-65.107 46.336,18.525 97.568,14.65 128.724,-4.556 31.4,-19.425 50.394,-33.827 65.81,-28.148 15.2,5.653 27.3,-10.756 16.442,-27.767 a 78.5,78.5 0 0 0 -79.4,-34.573 c -31.433,5.109 -60.226,30.009 -101.412,5.894 a 85.528,85.528 0 0 1 -7.729,-5.062 c -2.715,-1.785 8.826,2.717 6.133,0.688 -8.015,-4.354 -22.2,-13.842 -25.88,-17.217 -0.613,-0.562 6.219,2.179 5.606,1.616 -38.51,-31.712 -33.7,-53.134 -32.49,-66.57 0.969,-10.749 7.964,-24.523 19.751,-30.11 5.693,3.107 9.24,5.479 9.24,5.479 0,0 -2.428,-4.961 -3.741,-7.576 0.46,-0.2 0.9,-0.147 1.358,-0.342 4.664,2.251 14.977,8.1 20.407,11.667 7.072,4.988 9.326,9.436 9.326,9.436 0,0 1.862,-1.025 0.485,-5.375 -0.5,-1.784 -2.647,-7.453 -9.652,-13.174 l 0.438,0.049 a 81.2,81.2 0 0 1 11.867,8.241 c 1.975,-7.181 5.527,-14.679 4.746,-28.092 -0.477,-9.431 -0.257,-11.873 -1.919,-15.515 -1.488,-3.128 0.834,-4.348 3.418,-1.1 a 32.826,32.826 0 0 0 -2.208,-7.4 l 0.022,-0.244 c 3.225,-11.236 68.248,-40.461 72.981,-43.877 a 67.355,67.355 0 0 0 19.132,-20.8 c 3.617,-5.763 6.337,-13.848 7,-26.112 0.355,-8.844 -3.759,-14.734 -69.507,-21.618 -17.981,-1.771 -28.531,-14.8 -34.526,-26.823 -1.094,-2.59 -2.209,-4.937 -3.325,-7.282 a 58,58 0 0 1 -2.558,-8.431 c 10.749,-30.873 28.81,-56.977 55.367,-76.7 1.447,-1.318 -5.782,0.338 -4.336,-0.98 1.687,-1.538 12.706,-5.977 14.787,-6.977 2.542,-1.2 -10.882,-6.9 -22.732,-5.512 -12.069,1.36 -14.632,2.8 -21.073,5.531 2.673,-2.661 11.173,-6.149 9.18,-6.126 -13.011,1.995 -29.179,9.558 -43,18.124 A 10.731,10.731 0 0 1 393,195.8 c -6.441,2.732 -22.26,13.788 -26.865,23.142 a 44.329,44.329 0 0 0 0.266,-5.4 84.483,84.483 0 0 0 -13.193,13.819 l -0.241,0.219 c -37.358,-15.05 -70.233,-16.024 -98.053,-9.276 -6.086,-6.112 -9.059,-1.644 -22.907,-32.069 -0.941,-1.832 0.722,1.809 0,0 -2.278,-5.9 1.389,7.872 0,0 -23.284,18.372 -53.92,39.193 -68.626,53.89 -0.182,0.586 17.156,-4.9 0,0 -6.008,1.716 -5.6,5.281 -6.513,37.5 -0.22,2.443 -0.025,5.179 -0.223,7.378 -11.748,14.968 -19.749,27.643 -22.775,34.211 -15.193,26.18 -31.926,66.992 -48.146,131.551 a 334.364,334.364 0 0 1 25.784,-50.407 C 98.02,434.625 84.981,488.436 82.374,571.303 a 483.614,483.614 0 0 1 12.533,-50.66 473.038,473.038 0 0 0 34.74,201.061 c 9.329,22.821 24.76,57.455 51.029,95.4 82.533,86.839 198.945,140.9 327.852,140.9 134.581,0.008 255.425,-58.871 338.465,-152.368 z"
       style="fill:url(#linearGradient4729)"
       id="path197" />
    <path
       d="m 846.993,805.636 a 246.888,246.888 0 0 1 -30.123,18.183 704,704 0 0 0 38.3,-62.961 c 9.46,-10.47 18.126,-20.648 25.188,-31.653 3.437,-5.407 7.313,-12.079 11.416,-19.819 24.921,-44.9 52.4,-117.563 53.179,-192.2 v -0.18 c 0.018,-1.837 0.029,-3.675 0.014,-5.515 a 257.6,257.6 0 0 0 -5.712,-55.748 c 0.2,1.431 0.376,2.861 0.556,4.291 -0.221,-1.1 -0.407,-2.212 -0.644,-3.314 0.366,2.034 0.66,4 0.976,5.983 5.094,43.217 1.466,85.372 -16.682,116.45 -0.286,0.454 -0.58,0.879 -0.869,1.323 9.41,-47.234 12.558,-99.387 2.088,-151.6 0,0 -4.187,-25.383 -35.376,-102.441 -17.952,-44.353 -49.833,-80.716 -78,-107.207 -24.69,-30.546 -47.114,-51.045 -59.475,-64.06 C 726,127.971 715.179,107.591 710.735,94.293 706.882,92.361 657.6,44.486 653.685,42.662 632.174,76.015 564.523,180.337 596.7,277.809 c 14.584,44.172 51.467,90.017 90.067,115.736 1.695,1.936 22.969,25.042 33.086,77.157 10.453,53.848 4.958,95.862 -16.543,157.989 -25.286,54.505 -90.067,108.388 -150.724,113.9 -129.672,11.782 -177.145,-65.107 -177.145,-65.107 46.336,18.525 97.568,14.65 128.724,-4.556 31.4,-19.425 50.394,-33.827 65.81,-28.148 15.2,5.653 27.3,-10.756 16.442,-27.767 a 78.5,78.5 0 0 0 -79.4,-34.573 c -31.433,5.109 -60.226,30.009 -101.412,5.894 a 85.528,85.528 0 0 1 -7.729,-5.062 c -2.715,-1.785 8.826,2.717 6.133,0.688 -8.015,-4.354 -22.2,-13.842 -25.88,-17.217 -0.613,-0.562 6.219,2.179 5.606,1.616 -38.51,-31.712 -33.7,-53.134 -32.49,-66.57 0.969,-10.749 7.964,-24.523 19.751,-30.11 5.693,3.107 9.24,5.479 9.24,5.479 0,0 -2.428,-4.961 -3.741,-7.576 0.46,-0.2 0.9,-0.147 1.358,-0.342 4.664,2.251 14.977,8.1 20.407,11.667 7.072,4.988 9.326,9.436 9.326,9.436 0,0 1.862,-1.025 0.485,-5.375 -0.5,-1.784 -2.647,-7.453 -9.652,-13.174 l 0.438,0.049 a 81.2,81.2 0 0 1 11.867,8.241 c 1.975,-7.181 5.527,-14.679 4.746,-28.092 -0.477,-9.431 -0.257,-11.873 -1.919,-15.515 -1.488,-3.128 0.834,-4.348 3.418,-1.1 a 32.826,32.826 0 0 0 -2.208,-7.4 l 0.022,-0.244 c 3.225,-11.236 68.248,-40.461 72.981,-43.877 a 67.355,67.355 0 0 0 19.132,-20.8 c 3.617,-5.763 6.337,-13.848 7,-26.112 0.355,-8.844 -3.759,-14.734 -69.507,-21.618 -17.981,-1.771 -28.531,-14.8 -34.526,-26.823 -1.094,-2.59 -2.209,-4.937 -3.325,-7.282 a 58,58 0 0 1 -2.558,-8.431 c 10.749,-30.873 28.81,-56.977 55.367,-76.7 1.447,-1.318 -5.782,0.338 -4.336,-0.98 1.687,-1.538 12.706,-5.977 14.787,-6.977 2.542,-1.2 -10.882,-6.9 -22.732,-5.512 -12.069,1.36 -14.632,2.8 -21.073,5.531 2.673,-2.661 11.173,-6.149 9.18,-6.126 -13.011,1.995 -29.179,9.558 -43,18.124 A 10.731,10.731 0 0 1 393,195.8 c -6.441,2.732 -22.26,13.788 -26.865,23.142 a 44.329,44.329 0 0 0 0.266,-5.4 84.483,84.483 0 0 0 -13.193,13.819 l -0.241,0.219 c -37.358,-15.05 -70.233,-16.024 -98.053,-9.276 -6.086,-6.112 -9.059,-1.644 -22.907,-32.069 -0.941,-1.832 0.722,1.809 0,0 -2.278,-5.9 1.389,7.872 0,0 -23.284,18.372 -53.92,39.193 -68.626,53.89 -0.182,0.586 17.156,-4.9 0,0 -6.008,1.716 -5.6,5.281 -6.513,37.5 -0.22,2.443 -0.025,5.179 -0.223,7.378 -11.748,14.968 -19.749,27.643 -22.775,34.211 -15.193,26.18 -31.926,66.992 -48.146,131.551 a 334.364,334.364 0 0 1 25.784,-50.407 C 98.02,434.625 84.981,488.436 82.374,571.303 a 483.614,483.614 0 0 1 12.533,-50.66 473.038,473.038 0 0 0 34.74,201.061 c 9.329,22.821 24.76,57.455 51.029,95.4 82.533,86.839 198.945,140.9 327.852,140.9 134.581,0.008 255.425,-58.871 338.465,-152.368 z"
       style="fill:url(#linear-gradient-3)"
       id="path199" />
  </g>
  <path
     d="m 10.335199,12.331209 c 2.317255,-0.268333 3.343054,-2.6563005 2.025745,-2.7032518 -1.1899,-0.03803 -3.1233509,2.8298778 -2.025745,2.7032518 z"
     style="fill:url(#linear-gradient-4);stroke-width:0.01422764"
     id="path203" />
  <path
     d="m 12.527778,9.1401768 c 1.594292,-0.9278413 1.178603,-2.932032 1.178603,-2.932032 0,0 -0.615303,0.7147824 -1.033282,1.8541603 -0.412958,1.1282234 -1.103823,1.63827 -0.145321,1.0778717 z"
     style="fill:url(#linear-gradient-5);stroke-width:0.01422764"
     id="path205" />
  <path
     d="M 7.4665507,13.51714 C 9.6892922,14.226402 11.59968,12.475392 10.422101,11.890636 9.3514569,11.363274 6.4115712,13.181766 7.4665507,13.51714 Z"
     style="fill:url(#linear-gradient-6);stroke-width:0.01422764"
     id="path207" />
  <path
     d="m 9.3034529,0.30475549 c 0.00494,-0.005392 0.00755,-0.008152 0.00755,-0.008152 a 0.02538211,0.02538211 0 0 0 -0.00755,0.008152 z M 12.693473,9.991132 c 0.05407,-0.076303 0.127195,-0.3206199 0.191788,-0.4298312 0.39237,-0.6334573 0.395144,-1.1385385 0.395144,-1.1501056 0.237019,-1.1840099 0.215521,-1.6674794 0.06972,-2.5615869 C 13.232729,5.1296897 12.719523,4.0982996 12.274938,3.6016411 11.816808,3.0899441 12.139576,3.2566636 11.695987,2.8828892 11.307188,2.4518913 10.930213,2.0250906 10.724908,1.8534483 9.2413208,0.61312536 9.2748268,0.34967215 9.3034529,0.30475549 c -0.00482,0.005278 -0.011909,0.0131179 -0.020943,0.023376 -0.017628,-0.0700427 -0.03002,-0.1289451 -0.03002,-0.1289451 0,0 -0.8109754,0.81097551 -0.9817071,2.16260131 -0.1114593,0.8824124 0.2188638,1.8023005 0.6971543,2.3902435 a 5.4259524,5.4259524 0 0 0 0.8394308,0.8252031 v -3.699e-4 c 0.3613811,0.5189816 0.5602841,1.1593962 0.5602841,1.8482985 0,1.725016 -1.39916,3.1234081 -3.1251292,3.1234081 A 3.1365544,3.1365544 0 0 1 6.543433,10.47012 C 5.7290998,10.314925 5.2588478,9.90413 5.0243194,9.625254 4.8899109,9.4654207 4.8327584,9.3489105 4.8327584,9.3489105 5.5623945,9.6102865 6.3691444,9.5556097 6.8597419,9.2846301 7.3541381,9.0105346 7.6532743,8.8073497 7.8960405,8.8874655 8.1353494,8.9672256 8.3258717,8.7356993 8.1549835,8.4956932 7.98751,8.2560286 7.5517316,7.9127868 6.904687,8.0078843 6.4097216,8.0799758 5.9563152,8.4312989 5.3077767,8.0910449 A 1.3703067,1.3703067 0 0 1 5.1860734,8.0196221 c -0.042754,-0.025197 0.1389756,0.038343 0.096563,0.0097 C 5.1564373,7.9678904 4.9330206,7.8340083 4.8751141,7.7864027 c -0.00966,-0.00792 0.097929,0.030746 0.088211,0.022764 C 4.3569293,7.3617218 4.4326345,7.0594699 4.4517138,6.8698866 4.4669801,6.7182199 4.5771162,6.5238703 4.7627158,6.4450492 c 0.089634,0.043835 0.1454918,0.077299 0.1454918,0.077299 0,0 -0.038244,-0.07 -0.058917,-0.1068923 0.00724,-0.00276 0.014142,-0.00206 0.021341,-0.00482 0.073443,0.031756 0.2358374,0.1142337 0.3213455,0.1646138 0.1113597,0.070384 0.1468577,0.1331422 0.1468577,0.1331422 0,0 0.029323,-0.014455 0.00763,-0.075833 C 5.3385368,6.6073866 5.3047889,6.5273988 5.194482,6.4466712 l 0.0069,6.971e-4 a 1.2925953,1.2925953 0 0 1 0.1868658,0.1162825 c 0.031102,-0.101315 0.087045,-0.2071117 0.074738,-0.3963678 -0.00751,-0.1330569 -0.00404,-0.1675305 -0.03022,-0.2189065 -0.023433,-0.044106 0.013146,-0.06135 0.053809,-0.01548 A 0.42736985,0.42736985 0 0 0 5.4518031,5.8284233 l 3.557e-4,-0.00344 C 5.5029514,5.6664416 6.5268435,5.2540962 6.6013679,5.2058929 A 1.0003454,1.0003454 0 0 0 6.9026382,4.9123767 C 6.9595488,4.8310657 7.0024309,4.7169885 7.012874,4.543952 7.016374,4.4659845 6.9923719,4.4042792 6.7212073,4.345263 6.5584574,4.3098361 6.3066708,4.2753626 5.9182989,4.2389256 5.6351689,4.2139419 5.4690327,4.0301207 5.3746323,3.8604704 5.3574027,3.8239196 5.3398458,3.7907549 5.3222746,3.7577184 A 0.75560151,0.75560151 0 0 1 5.2819962,3.6387753 2.2546541,2.2546541 0 0 1 6.1538517,2.5565783 c 0.022764,-0.01861 -0.091057,0.00477 -0.068293,-0.013829 C 6.1121357,2.5210523 6.285642,2.4584223 6.3184224,2.4443083 6.3584444,2.4274343 6.1470647,2.3469913 5.9604693,2.3665403 5.7704307,2.3857333 5.7300668,2.4060363 5.628638,2.4445933 5.670738,2.4070463 5.804577,2.3578043 5.7732051,2.3581603 5.5683274,2.3863019 5.3136527,2.4930234 5.0959698,2.613873 a 0.13766664,0.13766664 0 0 1 0.013146,-0.06135 C 5.0076873,2.5910661 4.7585898,2.7470722 4.6860715,2.8790478 a 0.56182105,0.56182105 0 0 0 0.00435,-0.076203 1.2616787,1.2616787 0 0 0 -0.2077235,0.1949187 l -0.0038,0.0031 C 3.8906326,2.7885173 3.3729599,2.7747734 2.9348909,2.8699705 2.8390535,2.7837368 2.6849681,2.6533405 2.4669153,2.2240357 2.4521044,2.198184 2.4441511,2.2774605 2.432769,2.2519361 2.3480434,2.0554097 2.2968524,1.733424 2.3052609,1.5114443 c 0,0 -0.1752561,0.079874 -0.3203069,0.4134552 -0.026933,0.05997 -0.044205,0.093049 -0.061463,0.1261281 -0.00794,0.00965 0.017998,-0.1095529 0.013858,-0.1030651 -0.025211,0.042683 -0.090431,0.1023252 -0.1190995,0.1795244 -0.019691,0.057209 -0.047307,0.08925 -0.064935,0.1606016 l -0.00414,0.00654 c -0.00142,-0.021028 0.00522,-0.086518 3.841e-4,-0.073087 A 3.3591458,3.3591458 0 0 0 1.5744439,2.6461128 C 1.4963484,2.9028648 1.4054338,3.2523526 1.3910212,3.7069968 1.3875497,3.7414704 1.390637,3.78007 1.387507,3.8111005 1.2025476,4.0222955 1.0765192,4.2011228 1.0288708,4.2938158 0.78963308,4.6632792 0.52610873,5.2391287 0.27067991,6.1500249 A 4.5406517,4.5406517 0 0 1 0.67669407,5.4387994 C 0.46430386,5.9222973 0.25894211,6.6815553 0.21793805,7.8508112 A 6.2391331,6.2391331 0 0 1 0.41530387,7.1360146 C 0.37862502,7.9156892 0.46944004,8.8823151 0.9623424,9.9729064 1.255005,10.614388 1.9286979,11.917099 3.5748217,12.933678 l -1.423e-4,10e-5 c 0,0 0.5599999,0.41687 1.5225993,0.729294 0.071138,0.02581 0.1432012,0.05122 0.2167439,0.07588 -0.023077,-0.0093 -0.0454,-0.01912 -0.067083,-0.0292 a 6.8987408,6.8987408 0 0 0 1.9747964,0.290244 c 2.492398,0.0021 3.227483,-0.99878 3.227483,-0.99878 0,0 -0.0026,0.0019 -0.0073,0.0054 q 0.05276,-0.04967 0.101628,-0.10325 C 10.15031,13.274672 9.2528878,13.299314 8.9173289,13.272524 9.4896073,13.104453 9.8661845,12.962276 10.59868,12.681806 q 0.128504,-0.04773 0.262899,-0.10877 c 0.0097,-0.0043 0.01946,-0.0089 0.02919,-0.01332 0.01777,-0.0083 0.03537,-0.01611 0.05331,-0.02481 a 4.968363,4.968363 0 0 0 0.999662,-0.625831 c 0.735569,-0.587602 0.895616,-1.160364 0.979274,-1.538008 -0.01167,0.03619 -0.04802,0.120579 -0.07356,0.175228 -0.189441,0.405231 -0.609526,0.653888 -1.065764,0.867146 a 9.8027444,9.8027444 0 0 0 0.603025,-0.888346 c 0.149034,-0.147597 0.195502,-0.378683 0.306691,-0.533963 z"
     style="fill:url(#radial-gradient-2);stroke-width:0.01422764;fill-opacity:1;fill-rule:nonzero;opacity:1"
     id="path209" />
  <path
     d="m 11.798113,11.396083 c 0.299919,-0.330665 0.569248,-0.708878 0.773258,-1.137756 0.525,-1.1038087 1.336715,-2.9391458 0.69741,-4.8559788 C 12.763501,3.8873464 12.069776,3.058942 11.188957,2.2497023 9.758467,0.93555214 9.3589407,0.3488754 9.3589407,-5.6e-7 c 0,0 -1.6516725,1.84118466 -0.9353536,3.76151766 0.716319,1.9203331 2.1834019,1.8499347 3.1539689,3.8538978 1.14211,2.3581602 -0.924071,4.9314991 -2.6327393,5.6517591 0.1046159,-0.02323 3.7983533,-0.859107 3.9924753,-2.971898 -0.0044,0.03886 -0.08763,0.623214 -1.139179,1.100807 z"
     style="fill:url(#linear-gradient-7);stroke-width:0.01422764"
     id="path211" />
  <g
     transform="matrix(0.01422764,0,0,0.01422764,-0.29878138,-0.02845584)"
     id="g217">
    <path
       d="m 513.91,321.373 c 0.393,-8.77 -4.156,-14.66 -76.682,-21.463 -29.839,-2.755 -41.265,-30.334 -44.748,-41.941 -10.61,27.565 -14.991,56.49 -12.636,91.477 1.61,22.92 17.009,47.521 24.37,61.965 0,0 1.636,-2.126 2.391,-2.912 13.861,-14.431 71.936,-36.419 77.392,-39.541 6.014,-3.799 28.903,-20.523 29.913,-47.585 z"
       style="fill:url(#linear-gradient-8)"
       id="path213" />
    <path
       d="m 513.91,321.373 c 0.393,-8.77 -4.156,-14.66 -76.682,-21.463 -29.839,-2.755 -41.265,-30.334 -44.748,-41.941 -10.61,27.565 -14.991,56.49 -12.636,91.477 1.61,22.92 17.009,47.521 24.37,61.965 0,0 1.636,-2.126 2.391,-2.912 13.861,-14.431 71.936,-36.419 77.392,-39.541 6.014,-3.799 28.903,-20.523 29.913,-47.585 z"
       style="opacity:0.5;fill:url(#radial-gradient-3)"
       id="path215" />
  </g>
  <path
     d="m 2.4703726,2.2262125 c -0.014811,-0.025866 -0.022764,0.053411 -0.034146,0.0279 C 2.3515007,2.0575865 2.299954,1.7390723 2.3121613,1.5139626 c 0,0 -0.1752561,0.079874 -0.3203069,0.4134552 -0.026933,0.05997 -0.044205,0.093049 -0.061463,0.1261281 -0.00794,0.00965 0.017998,-0.1095529 0.013858,-0.1030651 -0.025197,0.042683 -0.090417,0.1023252 -0.1187438,0.1760671 -0.02349,0.060311 -0.047648,0.092693 -0.065632,0.1674878 -0.00553,0.020331 0.00558,-0.089961 7.398e-4,-0.07653 C 1.423261,2.8694868 1.3588667,3.8553057 1.3944216,3.8136187 2.1126044,3.046749 2.9356307,2.864877 2.9356307,2.864877 2.8480596,2.8003689 2.6577934,2.6141149 2.4703869,2.2262125 Z"
     style="fill:url(#linear-gradient-9);stroke-width:0.01422764"
     id="path219" />
  <path
     d="M 5.1953925,10.245323 C 4.2033846,9.8217804 3.075588,9.2244187 3.1181571,7.8673437 3.1761063,6.0801387 4.7847544,6.4333826 4.7847544,6.4333826 4.7240451,6.4481651 4.5617361,6.5637362 4.5042138,6.6869191 4.4434191,6.8409618 4.3325004,7.1888133 4.6685573,7.5533824 5.1962462,8.1252197 3.5844111,8.9100732 6.0722989,10.39275 6.1350429,10.4269 5.4890937,10.3724 5.1953214,10.24538 Z"
     style="fill:url(#linear-gradient-10);stroke-width:0.01422764"
     id="path221" />
  <path
     d="M 4.8429597,9.3546727 C 5.5464026,9.5994877 6.3658863,9.5565487 6.856498,9.2855549 7.184943,9.1027155 7.6062946,8.8098679 7.8655506,8.8821586 7.6410812,8.793435 7.4710751,8.7519757 7.266567,8.7418456 c -0.034829,0 -0.076573,-7.398e-4 -0.114504,-0.00455 a 1.9382029,1.9382029 0 0 0 -0.224185,0.012278 c -0.126626,0.011638 -0.2669959,0.091526 -0.3946036,0.078707 -0.0069,-6.971e-4 0.1237805,-0.053695 0.1131525,-0.051291 -0.06761,0.0141 -0.1410671,0.017144 -0.2186789,0.026762 -0.049327,0.00549 -0.091754,0.011667 -0.1407256,0.013701 C 4.8218316,8.9417013 3.583529,8.023364 3.583529,8.023364 3.4781306,8.3783436 4.0554029,9.0804777 4.8429739,9.3546727 Z"
     style="opacity:0.5;fill:url(#linear-gradient-11);stroke-width:0.01422764"
     id="path223" />
  <path
     d="m 11.795495,11.40553 c 1.482008,-1.4550464 2.231719,-3.2237697 1.914813,-5.2075722 0,0 0.126626,1.0172763 -0.353529,2.0577151 C 13.587452,7.239919 13.6143,5.9776286 13.001444,4.6704784 12.183454,2.9257144 10.83816,2.0076475 10.324556,1.6246394 9.5463756,1.0443082 9.2237781,0.45343433 9.2179732,0.33150345 8.9855078,0.80780216 8.2822782,2.4400397 9.1424244,3.8457305 9.948278,5.1626978 11.217739,5.5536022 12.10644,6.7616427 13.743672,8.9871301 11.795495,11.40553 11.795495,11.40553 Z"
     style="fill:url(#linear-gradient-12);stroke-width:0.01422764"
     id="path225" />
  <path
     d="M 11.583176,7.6196263 C 11.06529,6.5497077 10.418829,6.0830411 9.8073674,5.5772343 c 0.071138,0.099594 0.088667,0.1347785 0.1280488,0.199187 0.5381888,0.5736015 1.3318068,1.9727476 0.7556298,3.729164 -1.0845444,3.3061477 -5.4227795,1.7492887 -5.8775802,1.3119587 0.1839918,1.913462 3.3866905,2.829096 5.4719502,1.588232 1.186585,-1.123258 2.146496,-3.0327781 1.29776,-4.7861497 z"
     style="fill:url(#linear-gradient-13);stroke-width:0.01422764"
     id="path227" />
</svg>
