<?xml version="1.0" encoding="UTF-8" standalone="no"?>
<svg
   xmlns:dc="http://purl.org/dc/elements/1.1/"
   xmlns:cc="http://creativecommons.org/ns#"
   xmlns:rdf="http://www.w3.org/1999/02/22-rdf-syntax-ns#"
   xmlns:svg="http://www.w3.org/2000/svg"
   xmlns="http://www.w3.org/2000/svg"
   xmlns:xlink="http://www.w3.org/1999/xlink"
   height="14"
   width="14"
   version="1.1"
   id="svg2">
  <metadata
     id="metadata8">
    <rdf:RDF>
      <cc:Work
         rdf:about="">
        <dc:format>image/svg+xml</dc:format>
        <dc:type
           rdf:resource="http://purl.org/dc/dcmitype/StillImage" />
        <dc:title></dc:title>
      </cc:Work>
    </rdf:RDF>
  </metadata>
  <defs
     id="defs6">
    <linearGradient
       id="linearGradient3716">
      <stop
         id="stop3718"
         offset="0"
         style="stop-color:#d4e3eb;stop-opacity:0.49803922;" />
      <stop
         style="stop-color:#d4e3eb;stop-opacity:0;"
         offset="1"
         id="stop3720" />
    </linearGradient>
    <linearGradient
       gradientTransform="matrix(0.05165343,0,0,0.05165343,-1.42457,-0.67402466)"
       gradientUnits="userSpaceOnUse"
       y2="175.61958"
       x2="114.72285"
       y1="175.61958"
       x1="64.843742"
       id="linearGradient3714"
       xlink:href="#linearGradient3716" />
  </defs>
  <ellipse
     id="path3648"
     style="fill:#002452;fill-opacity:1;stroke:#000000;stroke-width:0.05719357;stroke-opacity:1"
     cx="6.1433988"
     cy="8.0897789"
     rx="5.9896312"
     ry="5.8039575" />
  <path
     id="path3660"
     d="M 0.38111134,6.6143621 0.72583233,6.1383184 C 1.0331107,6.1718265 1.2383175,6.3414306 1.4152743,6.5487008 l 0.1313223,0.180568 0.1477375,-0.03283 0.2133988,0.180568 L 1.8913179,6.7456847 2.006225,6.9098372 2.121132,6.9919142 2.203208,6.9590827 2.5315137,7.1396512 2.7449124,6.8605909 2.6956665,6.8113451 2.9090652,6.7949301 2.9911416,6.4830395 2.7941582,6.6471925 2.5643442,6.6307771 2.547929,6.5158704 H 2.4822678 L 2.3837761,6.286056 2.3016997,6.3188869 2.2688691,6.4666245 2.1867927,6.4502091 2.2196233,6.1547339 2.0226398,6.0890726 1.9569787,6.0069963 2.0718857,5.941335 V 5.8756742 L 1.9569787,5.8100128 2.0718857,5.6294449 2.088301,5.3503851 1.9241482,5.3668001 2.0554704,5.1369862 2.0718857,4.8086806 1.9898093,4.7758497 2.0062246,4.7101889 2.0718857,4.660943 V 4.2998067 C 2.1867927,3.9931693 2.3016997,3.997994 2.4166067,3.8894245 V 3.5447036 C 1.6010978,4.112093 0.81371951,4.9357228 0.38111134,6.6143621 Z"
     style="fill:#8ac2ff;fill-opacity:1;stroke:none;stroke-width:0.05165343px;stroke-linecap:butt;stroke-linejoin:miter;stroke-opacity:1" />
  <path
     id="path3658"
     d="m 3.8611518,6.5158704 0.1477376,0.2298139 0.016415,0.2626442 0.4103823,-0.016415 c 0.583565,0.4522929 0.3437887,0.5443739 0.2626448,0.705857 l 0.5745349,0.049246 0.016415,-0.1149072 h 0.2462293 l -0.03283,-0.1477371 0.065661,-0.082077 V 7.205312 L 5.6668333,7.1396512 5.6504179,7.0739898 5.437019,7.0575744 5.3877731,6.8113451 5.6175875,6.6143616 5.6832483,6.286056 5.6996637,6.1219035 8.0306343,6.4502091 8.1783719,6.5979467 8.129126,6.8934218 8.309694,7.024744 v 0.2790597 c 0,0 -0.2954752,0.032831 -0.3611365,0 -0.065661,-0.03283 -0.1641526,0.049246 -0.1641526,0.049246 l 0.4760432,0.065661 C 8.392214,7.6835731 8.4835284,7.7461781 8.5723388,7.7962623 V 8.6662724 L 7.6530828,9.913834 7.3083618,9.9630798 7.0621325,10.077987 6.6189197,10.028741 C 6.3761,9.9280469 6.4205452,9.795434 6.5696738,9.6511897 6.7236434,9.5426447 6.5840443,9.3921612 6.4383517,9.2408073 6.5522237,9.1620338 6.5153473,9.0330107 6.5040125,8.9125017 L 5.9130621,8.4857044 5.78174,8.8632559 H 5.6340024 v 0.1969834 l 0.082077,0.016416 V 9.3392991 L 5.5190957,9.1751465 5.3877731,9.1587311 V 9.2900532 L 5.2892814,9.3228841 4.8296536,9.0602393 4.7968232,8.81401 H 4.7147465 L 4.6162547,8.649857 4.7311619,8.5185348 4.5834243,8.3215514 4.4521022,8.469289 4.3207796,8.4857044 4.2715337,8.3215514 4.3043646,8.2066447 H 4.4192713 L 4.4685171,8.0753221 4.3700254,7.8619237 4.517763,7.7962623 4.5013481,7.3858805 4.2387033,7.2217274 4.0417198,7.1724816 4.4356867,7.4187109 4.3864409,7.6156943 4.2879491,7.5992789 C 4.222386,7.4898439 4.2757884,7.3804083 3.9268132,7.2709733 L 3.9596436,7.0904053 3.811906,6.9590827 Z"
     style="fill:#5ea9fe;fill-opacity:1;stroke:none;stroke-width:0.05165343px;stroke-linecap:butt;stroke-linejoin:miter;stroke-opacity:1" />
  <path
     id="path2850"
     d="M 0.61092535,5.6458598 C 0.53765749,2.5161927 2.4045381,0.55206893 5.4698499,0.03183258 7.7125664,-0.06240533 8.8632597,0.97477044 10.016883,1.4763777 l 0.328306,-0.67302676 c 0.0091,0.0425334 0.138384,0.0194056 0.186298,0.061939 l 0.289746,0.38127376 0.344721,0.03283 0.673026,0.4760433 2.002665,-0.1313223 c 0.0014,0.1942137 0.02231,0.4276485 -0.01642,0.5417044 -0.251041,0.2104774 -0.592422,0.4811814 -0.638682,0.6250102 -0.04198,0.1305281 -0.09744,0.2137462 -0.198497,0.2614152 -0.0077,0.277964 0.05872,0.445212 -0.114908,0.6401961 l -0.164148,1.132655 c -0.259232,0.1610641 -0.514298,0.4022443 -0.689441,0.6894421 l -0.04925,0.2462293 c 0.04677,0.084688 -0.106391,0.073041 -0.242554,0.2381993 -0.111024,0.1346672 -0.231395,0.1484344 -0.463304,0.090107 L 10.854063,6.0562422 10.788402,5.9085046 10.263113,5.8592587 10.148206,5.8428432 9.7870694,5.4981227 C 9.2664555,5.402131 9.3572059,4.9120149 9.1468737,4.5296209 L 8.7200764,4.0043316 c -0.3330877,0.1192033 -0.5285939,0.389171 -0.902841,0.9520861 -0.045746,0.5467324 -0.1918187,0.6611629 -0.082076,1.6743594 0.02974,0.1461528 0.048086,0.2980475 0.084925,0.4457479 0.07476,0.2997381 0.1731955,0.6087104 0.1941348,0.8346445 0.1734708,0.2629697 0.3955248,0.5162229 0.3611365,0.8207642 0.241534,0.2974282 0.2098307,0.5493172 0.1969835,0.8043488 0.2444968,0.2121525 0.292254,0.4061277 0.2790597,0.5745345 -0.069715,0.166585 -0.036167,0.410617 -0.2626448,0.459629 L 8.1947868,10.5212 8.1127105,10.406293 7.8008204,10.357047 7.6366674,10.061572 C 7.6419794,9.7551531 7.3886467,9.4487341 7.045717,9.1423156 6.9904551,9.0218174 6.7554278,8.8539892 6.8568478,8.7789301 6.9634667,8.7000228 6.8736816,8.377319 6.6818976,8.2301341 6.5402639,8.1214367 6.4892685,7.9167781 6.307029,7.7470165 6.383815,7.8551865 6.0151283,7.0251159 6.0443843,6.8934218 6.092174,6.6783003 5.8610244,6.0017437 5.7489096,5.9905808 V 4.6445276 C 5.5482655,3.6832551 5.2521477,2.3570665 3.329005,3.0731975 2.9394263,3.2182671 1.9476968,3.5875367 0.61092535,5.6458598 Z"
     style="fill:#f1f6f8;fill-opacity:1;stroke:#000000;stroke-width:0.05165343px;stroke-linecap:butt;stroke-linejoin:miter;stroke-opacity:1" />
  <path
     id="path3674"
     d="M 6.1241206,7.1603972 C 7.0652084,6.1098254 7.7968069,4.6965271 8.6873002,3.9181228 c 0.2218251,0.376724 0.3507738,0.3858994 0.5071659,0.6616598 0.197891,0.3489339 0.051496,0.723633 0.3300432,0.7835226 0.2538735,0.08777 0.3764254,0.316541 0.6302997,0.4462789 l 0.682954,0.068491 c 0.02382,-0.028934 -0.0408,0.096537 0.02271,0.1234011 0.161972,0.068508 0.622941,0.134535 0.683691,0.084186 L 12.298756,4.6672148 11.264562,2.0700715 9.2126042,1.1315088 2.252346,2.3953718 0.80776242,3.7913085 0.56153181,5.7721845 C 0.96083943,5.0920736 1.5483234,4.1390429 2.203097,3.7569753 5.1410257,1.6013886 5.710683,4.0327875 5.6668137,4.2449261 l 0.344721,2.1256081 z"
     style="fill:#d0e0e9;fill-opacity:1;stroke:none;stroke-width:0.05135771px;stroke-linecap:butt;stroke-linejoin:miter;stroke-opacity:1" />
  <path
     id="path3650"
     d="m 8.4574316,12.655187 0.1477376,-0.196984 v -0.246229 c 0,0 0.4760431,-0.492459 0.525289,-0.443213 0.049246,0.04925 0.4760432,-0.01642 0.4760432,-0.01642 l 0.016415,-0.147738 0.2462294,-0.01642 0.2954752,-0.295475 h 0.09849 l -0.03283,-0.147737 0.131323,-0.114908 -0.01642,-0.180568 0.164153,-0.262644 0.03283,-0.246229 0.164153,-0.164153 0.164152,0.114907 0.344721,-0.04925 0.04925,0.459628 -0.147737,0.295475 -0.04925,0.361136 -0.09849,0.03283 -0.01642,0.229814 -0.295475,0.180568 0.04925,0.09849 c -0.390929,0.610404 -1.202588,0.800078 -2.2488948,0.755104 z"
     style="fill:#056eff;fill-opacity:1;stroke:none;stroke-width:0.05165343" />
  <path
     id="path3652"
     d="M 9.4095179,12.605941 C 10.58096,11.394552 10.37802,11.095735 10.37802,11.095735 l -0.147738,0.03283 0.01642,0.164152 -0.09849,0.04925 -0.2954753,0.229814 -0.2298139,0.06566 -0.065661,0.147738 -0.5088736,0.01642 -0.4596282,0.393967 -0.016415,0.27906 -0.1313227,0.180568 c 0.4157941,0.07654 0.6773661,-0.0011 0.9685018,-0.04925 z"
     style="fill:#00c5ff;fill-opacity:1;stroke:none;stroke-width:0.05165343" />
  <path
     id="path2818"
     d="m 3.2657407,7.4350907 c 1.3180555,2.8209393 2.0603768,4.2739483 5.3338168,5.2365383 1.7262615,0.09389 2.6519305,-1.285993 3.1741115,-2.445906 0.14533,0.609736 0.101619,1.255966 0,1.871364 -0.595072,0.949967 -1.232362,1.723872 -2.5196558,1.805703 C 7.7863502,14.110778 6.1224899,13.93918 3.9856423,12.392565 1.5062298,9.9728764 2.0353805,8.6837757 1.9241059,7.533584 2.2747707,6.5805271 2.7409923,6.7288881 3.2657407,7.4350907 Z"
     style="fill:#aad4ff;fill-opacity:1;stroke:#000000;stroke-width:0.05156889px;stroke-linecap:butt;stroke-linejoin:miter;stroke-opacity:1" />
  <path
     id="path3706"
     d="M 2.1182773,9.3810624 C 2.9569087,9.3347412 3.9203761,9.7011101 4.5012587,9.9056675 4.1283127,9.4025983 3.759579,8.5917778 3.3388251,7.6999034 3.176577,7.3150838 2.9248159,6.8501776 2.3872368,6.8915716 2.0581837,7.1266071 1.8444946,7.7080238 1.9535693,8.3921621 c 0.051998,0.3185044 0.042669,0.7499314 0.164708,0.9889003 z"
     style="fill:#f2f2f2;stroke:url(#linearGradient3714);stroke-width:0.05165343" />
  <path
     id="path2820"
     d="M 1.9569787,8.3707972 C 2.3739665,8.4792963 2.6517692,8.0310546 2.9418958,7.6321093 L 2.9747264,8.2723055 1.973394,8.8468404 Z"
     style="fill:#002655;fill-opacity:1;stroke:none;stroke-width:0.05165343px;stroke-linecap:butt;stroke-linejoin:miter;stroke-opacity:1" />
  <path
     id="path2822"
     d="M 2.2688691,10.061572 3.532846,9.3721295 3.3851085,8.994578 C 3.0292051,9.2673722 2.8109647,9.6472377 2.088301,9.6347742 Z"
     style="fill:#00244f;fill-opacity:1;stroke:none;stroke-width:0.05165343" />
  <path
     id="path2824"
     d="M 2.5315137,10.537615 C 3.0089994,10.392882 3.4585911,10.191692 3.8447369,9.8645881 L 4.0088894,10.143648 C 3.532732,10.37882 3.1392003,10.696617 2.7941582,11.062904 Z"
     style="fill:#002045;fill-opacity:1;stroke:none;stroke-width:0.05165343" />
  <path
     id="path2826"
     d="m 3.188125,11.522532 c 0.4341437,-0.283594 0.9853007,-0.508682 1.2639772,-0.87001 l 0.2790597,0.262645 c -0.2189475,0.490208 -0.6693768,0.795231 -1.0998241,1.116239 z"
     style="fill:#002655;fill-opacity:1;stroke:none;stroke-width:0.05165343px;stroke-linecap:butt;stroke-linejoin:miter;stroke-opacity:1" />
  <path
     id="path2828"
     d="m 4.0253044,12.392542 c 1.6115327,-0.8168 1.3383688,-0.996343 1.3296383,-1.001332 l -0.016415,0.04925 c 0.084801,0.248972 -0.032432,0.71874 -0.689442,1.346053 C 4.4151938,12.681151 4.1744645,12.582631 4.0253044,12.392542 Z"
     style="fill:#002a5d;fill-opacity:1;stroke:none;stroke-width:0.05165343px;stroke-linecap:butt;stroke-linejoin:miter;stroke-opacity:1" />
  <path
     id="path2830"
     d="m 5.2728664,13.13123 c 0.6032418,-0.937693 0.7173722,-1.158135 0.722272,-1.165485 0.022365,0.231319 -0.024226,0.503137 0.1149072,0.656611 l 0.1313226,0.03283 C 6.1726676,12.939718 6.0350851,13.22425 6.0443848,13.508781 5.5254605,13.382931 5.4682305,13.257081 5.2728664,13.13123 Z"
     style="fill:#00346f;fill-opacity:1;stroke:none;stroke-width:0.05165343px;stroke-linecap:butt;stroke-linejoin:miter;stroke-opacity:1" />
  <path
     id="path2832"
     d="M 6.6189197,13.689349 C 7.0225664,13.51088 6.8487335,12.441788 6.8487335,12.441788 l 0.6401963,0.738688 c -0.064544,0.353144 -0.059183,0.646369 0.180568,0.738688 -0.3448621,-0.04462 -0.6662208,0.05178 -1.0505781,-0.229815 z"
     style="fill:#003e84;fill-opacity:1;stroke:none;stroke-width:0.05165343px;stroke-linecap:butt;stroke-linejoin:miter;stroke-opacity:1" />
  <path
     id="path2834"
     d="m 8.2604481,12.901416 c 1.081425,0.322834 0.7187172,0.645668 1.0505781,0.968502 -0.2853682,0.05977 -0.5623359,0.123742 -1.0177477,0.09849 0.3359493,-0.248928 0.1936074,-0.645024 -0.03283,-1.066994 z"
     style="fill:#004fa5;fill-opacity:1;stroke:none;stroke-width:0.05165343px;stroke-linecap:butt;stroke-linejoin:miter;stroke-opacity:1" />
  <path
     id="path2836"
     d="m 10.213867,12.835755 c 0.18604,0.283028 0.37208,0.410962 0.55812,0.476043 -0.245359,0.237898 -0.53259,0.350177 -0.8207646,0.459628 0.090372,-0.183922 0.015452,-0.491813 -0.065661,-0.804349 -0.060908,-0.116095 0.2423366,-0.105475 0.3283056,-0.131322 z"
     style="fill:#005cc1;fill-opacity:1;stroke:none;stroke-width:0.05165343px;stroke-linecap:butt;stroke-linejoin:miter;stroke-opacity:1" />
  <path
     id="path3646"
     d="M 9.5559921,3.4235775 C 9.4888266,3.0293047 9.5040742,2.5687701 9.9348364,1.7041604 c 0.061219,-0.1228753 0.084246,-0.111269 0.08545,-0.253834 l 0.348221,-0.65001211 0.208933,0.0696442 c 0.06272,0.17470761 0.138488,0.29725461 0.232147,0.34822071 0.141626,0.048768 0.274764,0.089047 0.325006,0.046429 l 0.696441,0.487509 1.996466,-0.1160735 0.02321,0.5571532 -0.557154,0.4410797 -0.214735,0.3540244 -0.09866,0.052233 -0.01161,0.4120613 -0.05223,0.179914 -0.05223,0.046429 -0.168308,1.1201099 C 12.40353,5.0728496 11.999655,5.2043402 11.96452,5.7914775 L 11.778802,5.9191585 11.63371,6.075858 11.442189,6.11068 C 11.375732,5.6771189 11.256105,5.7423345 11.300434,5.5400266 11.337643,5.3702123 11.589451,5.0910735 11.646212,4.9910167 L 11.909117,4.979389 12.057378,4.8744974 11.442187,4.7468163 11.3029,5.0137856 10.583243,4.1722521 10.606458,5.0021785 10.2002,4.938338 C 10.036518,4.7041806 9.5611941,4.531669 9.4573294,4.2418962 9.3588568,4.0553666 9.4320755,3.8344989 9.6430472,3.5860805 L 9.9912678,3.8298351 10.362703,3.8472461 10.780568,3.649921 10.768961,3.2436634 10.484581,2.2918599 10.293059,1.8275656 c -0.22862,0.5393192 -0.12322,1.22179 -0.7370669,1.5960119 z"
     style="fill:#6db5ff;fill-opacity:1;stroke:none;stroke-width:0.05165343px;stroke-linecap:butt;stroke-linejoin:miter;stroke-opacity:1" />
  <path
     id="path3644"
     d="M 0.61832522,4.6307428 1.2915521,3.3075039 2.1272819,2.7967801 4.9130481,2.7271359 C 5.412403,2.795387 5.5044918,3.0963614 5.5792637,3.407231 6.0306434,3.4464504 6.065384,3.6419093 6.0273546,3.8646571 L 5.7023487,4.3289515 5.7952076,6.000411 6.0505692,6.4182759 6.1202136,5.3271845 C 6.1028931,4.6252113 6.2832406,4.5162411 6.4452195,4.3521662 8.1485833,4.3468873 8.1531686,3.0203363 8.2327531,1.7521177 8.2904283,1.6824736 8.3343048,1.6128295 8.5113294,1.5431853 L 9.6952802,1.3342528 C 4.4260069,-0.84465584 1.3416684,0.97580852 0.61832522,4.6307428 Z"
     style="fill:#5babfe;fill-opacity:1;stroke:none;stroke-width:0.05165343px;stroke-linecap:butt;stroke-linejoin:miter;stroke-opacity:1" />
  <g
     transform="matrix(0.05165343,0,0,0.05165343,-1.42457,-0.67402466)"
     id="g3638">
    <path
       style="fill:#004ca0;fill-opacity:1;stroke:none;stroke-width:1px;stroke-linecap:butt;stroke-linejoin:miter;stroke-opacity:1"
       d="m 61.970339,50.211864 6.991525,1.588983 3.495763,-2.542373 3.177966,7.309322 3.495763,1.271187 -0.317797,-2.86017 c -2.224576,-4.449152 -4.449152,-8.898305 -6.673728,-13.347457 5.702062,2.576068 10.467597,7.952403 13.665254,9.851695 -0.990363,-4.308741 -0.693296,-7.973767 0,-11.440678 l 1.906779,-1.90678 3.177967,9.216102 c 4.801607,5.237542 6.229034,9.562221 8.580506,13.983051 2.828013,0.179706 4.216923,-0.126303 5.402543,-1.588984 -2.11894,0.655395 -3.52928,-1.060204 -4.76695,-5.402542 l -0.317794,-7.309322 -2.86017,-1.271186 -0.635593,-11.122882 3.177966,0.635593 6.991521,20.65678 c 6.80437,4.897583 10.15252,6.338964 13.66526,7.944915 0,0 2.54237,0.95339 3.81356,0.95339 1.27118,0 0,-2.224576 0,-2.224576 -6.08574,-1.61045 -10.87628,-8.401663 -16.20763,-13.029661 -3.61186,-8.804264 -1.15066,-9.927182 -1.58898,-14.936441 l 4.13135,7.309322 c 3.38983,4.828376 6.77966,9.133967 10.1695,11.440678 l -0.3178,-4.449152 c -8.90104,-12.38473 -4.3738,-12.833207 -6.35593,-19.067797 l 3.17796,0.635593 0.6356,9.216102 c 5.33376,5.351044 14.5571,8.479473 14.61864,16.84322 1.85633,-1.503435 7.01597,4.049771 8.89831,14.300848 L 140.7839,59.745762 C 135.06356,54.78896 129.34322,45.632145 123.62288,36.54661 c -2.49798,-4.570469 -1.77303,-8.335206 -0.95339,-12.076271 2.71194,1.228767 6.60138,1.672528 6.99153,4.449152 L 141.1017,52.43644 c 7.86343,5.633149 8.78728,11.960256 8.26271,18.432204 5.33697,4.581313 5.28869,11.316727 6.67373,17.478813 l -0.95339,-13.029661 -12.07628,-43.220339 5.40255,0.317797 1.90678,5.402542 5.08474,3.177966 3.17797,12.711865 1.90678,23.516949 0.95339,0.95339 -0.3178,13.347458 2.86017,-13.665255 L 162.39407,75 161.75847,50.847457 c -2.70791,-3.177966 -2.21022,-6.355932 -2.54237,-9.533898 l 1.90678,-7.309322 2.54237,0.317797 0.6356,11.440678 1.90678,6.355932 V 40.677966 l 7.30932,-4.766949 -1.90678,20.021186 c 1.36453,-4.427968 3.1229,-12.416896 4.44915,-19.385593 l 5.72034,1.90678 c -0.13131,15.745836 -2.48769,27.518467 -4.13136,40.995763 5.29291,-6.699037 4.25812,-22.846825 6.35594,-34.322035 l 9.85169,-10.805084 2.22458,1.906779 -6.67373,17.79661 -4.44915,18.432204 0.95339,0.317796 8.58051,-20.656779 v -3.81356 l 3.17796,-9.216101 6.99153,4.449152 11.12288,-4.131356 C 184.32202,17.952582 120.33318,-11.000072 61.970339,50.211864 Z"
       id="path2852" />
    <path
       style="fill:#003a7b;fill-opacity:1;stroke:none;stroke-width:1px;stroke-linecap:butt;stroke-linejoin:miter;stroke-opacity:1"
       d="m 225.615,67.868229 1.79773,-13.932401 5.16847,-12.808819 0.22472,-3.370742 6.06734,2.022445 17.75257,10.112226 25.16821,0.224716 c -7.213,2.828561 -16.11772,6.141954 -21.79747,7.865065 l -7.19091,-0.224716 c -5.68561,-4.847265 -11.30898,-9.507779 -16.40428,-12.584104 -6.17043,6.461884 -8.75711,14.459662 -10.78638,22.69633 z"
       id="path2858" />
    <path
       style="fill:#001c41;fill-opacity:1;stroke:none;stroke-width:1px;stroke-linecap:butt;stroke-linejoin:miter;stroke-opacity:1"
       d="m 237.30024,97.980192 c 9.32822,9.380648 8.81457,10.761058 8.76393,10.786378 -0.23511,-1.8446 -0.16757,-3.32365 0.22472,-6.29206 -3.49563,-3.495747 -6.0242,-3.123297 -8.98865,-4.494318 z"
       id="path2860" />
    <path
       style="fill:#001c41;fill-opacity:1;stroke:none;stroke-width:1px;stroke-linecap:butt;stroke-linejoin:miter;stroke-opacity:1"
       d="m 248.31133,126.51914 2.6966,-2.02244 4.94375,0.67414 c -1.19848,1.92796 -2.39697,3.2365 -3.59545,3.37075 -0.75005,0.0744 -1.42887,-0.0403 -4.49433,-1.12358 z"
       id="path3636" />
  </g>
  <g
     transform="matrix(0.05165343,0,0,0.05165343,-1.2388522,-0.58116574)"
     id="g3700">
    <path
       style="fill:#9fceff;fill-opacity:1;stroke:none"
       d="m 236.28179,117.90253 c -8.10382,-0.15889 -7.94492,0 -7.94492,0 -1.26332,-0.21973 -3.72243,0.75633 -6.67373,2.22458 -2.0043,2.77105 -4.60211,4.35509 -6.99152,6.35593 l 6.67373,-7.30932 c 1.77577,-1.13736 3.59048,-2.23579 6.19703,-2.54237 3.58318,-0.10593 6.10906,-0.21187 8.89831,-0.3178 z"
       id="path3690" />
    <path
       style="fill:#9fceff;fill-opacity:1;stroke:none"
       d="m 230.56145,115.51906 c -3.23591,0.0149 -6.23479,-0.68125 -9.8517,0.47669 -5.94877,1.73878 -8.20452,3.62687 -11.12288,4.60805 l 8.89831,-5.72033 c 4.64015,-1.26155 8.60622,-0.50086 12.87076,-0.6356 z"
       id="path3692" />
    <path
       style="fill:#9fceff;fill-opacity:1;stroke:none"
       d="m 237.10517,120.63558 c -0.99437,-0.44326 -11.58406,1.13433 -11.26733,2.64407 -5.11014,1.18988 -8.08344,5.77496 -11.96071,8.92374 l 5.72033,-7.10595 c 3.9599,-3.50326 6.79111,-3.77849 9.88059,-4.79237 3.67803,-0.4587 6.40604,-0.46457 9.18721,-0.49575 z"
       id="path3696" />
    <path
       style="fill:none;stroke:#000000;stroke-width:1px;stroke-linecap:butt;stroke-linejoin:miter;stroke-opacity:1"
       d="M 217.05509,129.66101 Z"
       id="path3698" />
  </g>
</svg>
