<?xml version="1.0" encoding="UTF-8" standalone="no"?>
<svg
   xmlns:dc="http://purl.org/dc/elements/1.1/"
   xmlns:cc="http://creativecommons.org/ns#"
   xmlns:rdf="http://www.w3.org/1999/02/22-rdf-syntax-ns#"
   xmlns:svg="http://www.w3.org/2000/svg"
   xmlns="http://www.w3.org/2000/svg"
   xml:space="preserve"
   width="13.948905"
   height="14"
   version="1.1"
   style="clip-rule:evenodd;fill-rule:evenodd;image-rendering:optimizeQuality;shape-rendering:geometricPrecision;text-rendering:geometricPrecision"
   viewBox="0 0 13.948905 14"
   id="svg3363"><metadata
     id="metadata3378"><rdf:RDF><cc:Work
         rdf:about=""><dc:format>image/svg+xml</dc:format><dc:type
           rdf:resource="http://purl.org/dc/dcmitype/StillImage" /><dc:title></dc:title></cc:Work></rdf:RDF></metadata><defs
     id="defs3365"><style
       type="text/css"
       id="style3367"><![CDATA[
    .fil0 {fill:#0078D6}
   ]]></style></defs><g
     id="Layer_x0020_1"
     transform="scale(0.05109489,0.05109489)"><metadata
       id="CorelCorpID_0Corel-Layer" /><g
       id="_26257872464"><path
         id="path5"
         class="fil0"
         d="M 125,22 C 174,14 224,7 273,0 l 0,2 0,128 c -49,0 -99,1 -148,1 0,-36 0,-73 0,-109 l 0,0 0,0 z"
         style="fill:#0078d6" /><path
         id="path7"
         class="fil0"
         d="m 0,39 c 37,-6 74,-11 112,-15 0,36 0,71 0,107 -38,0 -75,1 -112,1 l 0,-93 0,0 0,0 z"
         style="fill:#0078d6" /><path
         id="path29"
         class="fil0"
         d="m 0,143 c 37,0 74,1 112,0 0,36 0,72 0,108 C 74,246 37,241 0,236 l 0,-93 z"
         style="fill:#0078d6" /><path
         id="path31"
         class="fil0"
         d="m 125,144 c 49,0 99,0 148,0 l 0,124 0,6 c -49,-8 -99,-14 -148,-21 0,-36 0,-72 0,-109 l 0,0 z"
         style="fill:#0078d6" /></g></g></svg>